<?xml version="1.0" encoding="UTF-8" standalone="no"?>
<!DOCTYPE svg PUBLIC "-//W3C//DTD SVG 1.1//EN" "http://www.w3.org/Graphics/SVG/1.1/DTD/svg11.dtd">
<svg xmlns="http://www.w3.org/2000/svg" version="1.1" viewBox="0.00 0.00 500.00 259.00">
<g stroke-width="2.00" fill="none" stroke-linecap="butt">
<path stroke="#c6c6c3" vector-effect="non-scaling-stroke" d="
  M 312.49 47.72
  L 313.80 53.37
  Q 314.39 55.95 315.60 53.59
  L 328.33 28.83
  A 0.31 0.31 0.0 0 0 328.02 28.38
  Q 327.88 28.39 327.72 28.44"
/>
<path stroke="#acaca9" vector-effect="non-scaling-stroke" d="
  M 360.96 81.00
  L 347.44 82.63
  Q 346.95 82.69 346.55 82.41
  Q 344.66 81.11 342.28 78.96
  Q 332.06 69.78 322.00 60.52
  A 0.42 0.42 0.0 0 0 321.35 60.62
  L 317.57 67.08
  A 1.35 1.35 0.0 0 0 317.43 68.10
  L 320.87 81.48"
/>
<path stroke="#7e7f7e" vector-effect="non-scaling-stroke" d="
  M 320.87 81.48
  L 321.66 85.32"
/>
<path stroke="#a5a5a2" vector-effect="non-scaling-stroke" d="
  M 321.85 86.98
  Q 316.29 88.43 309.72 88.45
  A 0.46 0.45 82.5 0 1 309.28 88.11
  L 307.58 81.53"
/>
<path stroke="#bcbcb9" vector-effect="non-scaling-stroke" d="
  M 307.58 81.53
  Q 305.37 73.50 301.60 55.56
  Q 298.49 40.78 290.94 16.19
  Q 290.78 15.68 291.01 15.20
  Q 291.37 14.44 291.38 13.63"
/>
<path stroke="#80807b" vector-effect="non-scaling-stroke" d="
  M 307.58 81.53
  Q 306.60 81.01 306.50 81.13
  A 1.30 1.14 -34.6 0 0 306.22 82.24
  Q 307.48 86.95 305.63 90.02
  C 303.95 92.81 302.55 96.15 301.25 98.00
  Q 300.42 99.18 299.41 98.13
  Q 299.13 97.84 299.01 97.45
  Q 298.84 96.93 298.39 96.98"
/>
<path stroke="#80807b" vector-effect="non-scaling-stroke" d="
  M 296.45 91.73
  L 295.37 85.86"
/>
<path stroke="#bcbcb9" vector-effect="non-scaling-stroke" d="
  M 295.37 85.86
  Q 296.08 84.37 296.91 82.55
  Q 297.77 80.68 298.01 79.10
  Q 299.32 70.78 293.81 65.12"
/>
<path stroke="#bcbcb9" vector-effect="non-scaling-stroke" d="
  M 287.93 48.13
  L 291.89 40.08
  A 1.10 1.10 0.0 0 0 291.22 38.54
  L 286.30 37.08"
/>
<path stroke="#595958" vector-effect="non-scaling-stroke" d="
  M 286.30 37.08
  Q 286.18 35.31 285.47 34.00"
/>
<path stroke="#595958" vector-effect="non-scaling-stroke" d="
  M 285.23 33.04
  L 283.64 29.16"
/>
<path stroke="#494a48" vector-effect="non-scaling-stroke" d="
  M 323.69 81.62
  L 321.81 80.13
  Q 321.37 79.77 321.13 80.30
  Q 320.88 80.87 320.87 81.48"
/>
<path stroke="#7e7f7e" vector-effect="non-scaling-stroke" d="
  M 286.30 37.08
  L 281.99 36.38"
/>
<path stroke="#424341" vector-effect="non-scaling-stroke" d="
  M 243.37 101.85
  Q 243.35 101.88 243.34 101.92"
/>
<path stroke="#8a8a85" vector-effect="non-scaling-stroke" d="
  M 243.34 101.92
  C 246.42 100.30 248.76 94.56 250.11 91.42"
/>
<path stroke="#acaca9" vector-effect="non-scaling-stroke" d="
  M 287.72 48.69
  L 287.05 49.12
  Q 286.59 49.41 286.11 49.14
  C 278.72 44.99 272.33 43.66 264.00 46.04
  C 256.71 48.14 256.05 56.77 264.03 57.93
  Q 270.02 58.80 275.98 59.84
  Q 277.54 60.11 278.45 59.16
  A 0.10 0.08 29.6 0 1 278.56 59.14
  L 281.72 60.56"
/>
<path stroke="#a5a5a2" vector-effect="non-scaling-stroke" d="
  M 295.37 85.86
  C 291.54 91.39 284.25 94.22 277.80 95.14
  C 268.34 96.48 258.78 95.75 250.11 91.42"
/>
<path stroke="#c6c6c3" vector-effect="non-scaling-stroke" d="
  M 250.11 91.42
  Q 249.31 91.30 248.90 90.63
  Q 248.61 90.17 248.72 89.32
  Q 248.89 87.93 249.00 86.55"
/>
<path stroke="#acaca9" vector-effect="non-scaling-stroke" d="
  M 251.73 79.62
  Q 252.82 79.79 254.12 80.84"
/>
<path stroke="#7e7f7e" vector-effect="non-scaling-stroke" d="
  M 261.21 84.35
  Q 266.22 85.76 271.80 85.14"
/>
<path stroke="#acaca9" vector-effect="non-scaling-stroke" d="
  M 271.80 85.14
  C 276.62 85.35 281.47 84.20 283.89 79.73
  C 287.35 73.34 276.82 70.67 272.89 70.00
  C 262.37 68.21 239.41 65.17 245.54 48.14"
/>
<path stroke="#636462" vector-effect="non-scaling-stroke" d="
  M 243.34 101.92
  C 241.42 99.96 242.82 97.40 242.95 95.31"
/>
<path stroke="#8a8a85" vector-effect="non-scaling-stroke" d="
  M 242.95 95.31
  L 246.06 90.64
  Q 246.32 90.25 246.76 90.11
  Q 247.13 90.00 247.22 89.56
  Q 247.33 89.07 246.83 89.11
  Q 246.70 89.12 246.55 89.18"
/>
<path stroke="#494a48" vector-effect="non-scaling-stroke" d="
  M 271.80 85.14
  Q 273.39 84.30 273.35 82.85
  A 0.58 0.58 0.0 0 0 272.81 82.28
  L 265.68 81.78"
/>
<path stroke="#424341" vector-effect="non-scaling-stroke" d="
  M 240.83 99.66
  Q 241.52 100.49 241.58 103.01"
/>
<path stroke="#7e7f7e" vector-effect="non-scaling-stroke" d="
  M 240.09 96.22
  Q 240.05 97.49 240.83 99.66"
/>
<path stroke="#a5a5a2" vector-effect="non-scaling-stroke" d="
  M 240.83 99.66
  L 227.50 100.82
  A 0.43 0.43 0.0 0 1 227.04 100.46
  L 225.70 92.75
  Q 225.11 89.35 224.31 92.70
  Q 222.42 100.54 213.85 103.60
  Q 202.22 107.76 191.36 102.37"
/>
<path stroke="#bcbcb9" vector-effect="non-scaling-stroke" d="
  M 191.36 102.37
  Q 181.94 96.22 182.25 84.82
  C 182.32 82.45 183.57 80.67 184.24 78.34"
/>
<path stroke="#7e7f7e" vector-effect="non-scaling-stroke" d="
  M 190.07 71.80
  Q 198.91 66.50 210.04 66.69"
/>
<path stroke="#acaca9" vector-effect="non-scaling-stroke" d="
  M 210.04 66.69
  L 211.98 66.48"
/>
<path stroke="#c6c6c3" vector-effect="non-scaling-stroke" d="
  M 211.98 66.48
  L 218.13 66.73
  A 0.99 0.97 68.5 0 1 218.81 67.03
  L 219.38 67.60
  A 0.56 0.56 0.0 0 0 220.33 67.08
  L 219.75 64.53"
/>
<path stroke="#acaca9" vector-effect="non-scaling-stroke" d="
  M 219.75 64.53
  C 217.27 47.11 191.91 55.41 182.44 59.53
  A 1.05 1.05 0.0 0 1 181.00 58.82
  L 180.18 55.51"
/>
<path stroke="#80807b" vector-effect="non-scaling-stroke" d="
  M 191.36 102.37
  Q 190.64 102.94 190.49 104.89
  Q 190.44 105.44 190.05 105.82
  Q 187.15 108.63 186.50 112.50"
/>
<path stroke="#91918c" vector-effect="non-scaling-stroke" d="
  M 219.75 64.53
  L 219.66 66.02
  Q 219.64 66.39 219.27 66.43
  Q 216.67 66.67 215.90 65.35
  Q 214.62 63.18 214.36 62.15
  Q 213.25 57.85 212.42 62.21
  Q 212.21 63.32 211.98 66.48"
/>
<path stroke="#494a48" vector-effect="non-scaling-stroke" d="
  M 210.04 66.69
  Q 210.51 66.36 210.63 66.02
  A 0.50 0.50 0.0 0 0 210.20 65.35
  Q 201.33 64.66 193.07 67.90
  Q 189.64 69.24 186.22 70.66"
/>
<path stroke="#acaca9" vector-effect="non-scaling-stroke" d="
  M 175.85 41.52
  L 151.90 44.42
  A 0.47 0.46 82.1 0 0 151.50 44.95
  L 153.61 58.34"
/>
<path stroke="#a5a5a2" vector-effect="non-scaling-stroke" d="
  M 164.07 114.54
  L 147.66 116.78"
/>
<path stroke="#bcbcb9" vector-effect="non-scaling-stroke" d="
  M 147.66 116.78
  L 137.85 62.80"
/>
<path stroke="#acaca9" vector-effect="non-scaling-stroke" d="
  M 137.85 62.80
  L 135.15 47.27
  A 0.55 0.54 81.6 0 0 134.55 46.82
  L 106.50 50.23"
/>
<path stroke="#878782" vector-effect="non-scaling-stroke" d="
  M 137.85 62.80
  Q 137.17 63.92 135.90 64.61
  Q 135.47 64.85 135.46 65.34
  L 135.44 67.50"
/>
<path stroke="#80807b" vector-effect="non-scaling-stroke" d="
  M 147.66 116.78
  Q 147.02 120.04 146.06 123.25
  Q 145.87 123.90 145.07 123.44"
/>
<path stroke="#a5a5a2" vector-effect="non-scaling-stroke" d="
  M 82.21 56.61
  Q 80.97 59.77 75.75 60.79
  C 73.33 61.26 71.02 60.27 68.63 59.67
  Q 68.13 59.54 68.10 59.03
  L 67.99 56.94
  A 0.51 0.51 0.0 0 0 67.29 56.49
  L 60.48 59.07"
/>
<path stroke="#424341" vector-effect="non-scaling-stroke" d="
  M 82.53 64.55
  L 72.04 67.67"
/>
<path stroke="#424341" vector-effect="non-scaling-stroke" d="
  M 71.20 67.83
  L 65.99 63.17
  Q 65.62 62.85 65.14 62.75
  L 61.54 62.06"
/>
<path stroke="#acaca9" vector-effect="non-scaling-stroke" d="
  M 62.93 68.86
  Q 61.60 72.67 55.47 74.65
  Q 54.58 74.94 54.20 76.45
  Q 54.05 77.10 53.68 76.54
  Q 52.54 74.81 51.69 74.31
  Q 44.68 70.15 38.24 65.79"
/>
<path stroke="#a5a5a2" vector-effect="non-scaling-stroke" d="
  M 95.71 67.40
  Q 94.02 70.42 89.68 71.36
  Q 89.17 71.47 88.84 71.06
  L 86.69 68.45"
/>
<path stroke="#a5a5a2" vector-effect="non-scaling-stroke" d="
  M 93.42 80.37
  L 84.85 74.87"
/>
<path stroke="#a5a5a2" vector-effect="non-scaling-stroke" d="
  M 96.87 82.57
  C 97.12 85.15 97.10 87.10 95.02 88.96
  Q 92.03 91.65 88.71 93.95
  C 86.93 95.18 87.71 98.42 87.94 100.22
  Q 88.02 100.78 87.65 101.20
  Q 85.87 103.25 83.27 104.00
  A 1.12 1.12 0.0 0 1 82.19 103.72
  L 78.20 99.78
  Q 77.74 99.32 77.74 98.66
  L 77.76 93.97
  A 0.90 0.89 -81.0 0 0 77.15 93.12
  Q 72.56 91.59 69.25 87.70"
/>
<path stroke="#a5a5a2" vector-effect="non-scaling-stroke" d="
  M 48.15 84.72
  C 48.00 89.23 43.87 88.92 40.66 89.67"
/>
<path stroke="#acaca9" vector-effect="non-scaling-stroke" d="
  M 39.21 86.12
  L 39.78 82.13"
/>
<path stroke="#acaca9" vector-effect="non-scaling-stroke" d="
  M 41.95 97.45
  Q 38.21 103.03 32.47 100.09"
/>
<path stroke="#a5a5a2" vector-effect="non-scaling-stroke" d="
  M 64.24 96.23
  Q 60.39 96.01 56.47 97.24"
/>
<path stroke="#a5a5a2" vector-effect="non-scaling-stroke" d="
  M 71.70 100.55
  Q 70.06 105.60 63.25 104.23
  Q 62.65 104.11 62.30 103.71
  Q 61.78 103.12 61.76 102.67
  Q 61.61 99.92 60.26 102.32
  Q 59.19 104.23 60.29 107.37
  Q 60.42 107.72 60.78 107.80
  L 66.32 109.07
  A 0.78 0.77 6.3 0 1 66.92 109.81
  L 66.98 113.12
  Q 66.99 113.70 66.52 114.03
  C 64.03 115.78 58.89 119.76 55.78 117.98
  Q 51.95 115.78 47.86 115.83
  A 2.08 2.08 0.0 0 1 46.18 115.00
  Q 44.16 112.32 43.59 108.77"
/>
<path stroke="#a5a5a2" vector-effect="non-scaling-stroke" d="
  M 450.28 159.20
  Q 446.99 159.52 443.76 160.00
  Q 442.58 160.18 441.73 159.73"
/>
<path stroke="#bcbcb9" vector-effect="non-scaling-stroke" d="
  M 441.73 159.73
  C 436.71 139.50 428.94 123.81 426.74 105.09"
/>
<path stroke="#c6c6c3" vector-effect="non-scaling-stroke" d="
  M 438.01 104.52
  L 439.72 112.04
  A 0.69 0.69 0.0 0 0 440.97 112.27
  C 442.65 109.79 444.08 107.24 446.20 105.08
  Q 448.60 102.63 450.93 100.22"
/>
<path stroke="#80807b" vector-effect="non-scaling-stroke" d="
  M 441.73 159.73
  Q 441.46 159.63 441.25 159.65
  Q 440.88 159.69 440.88 160.06
  L 440.88 160.48
  Q 440.88 160.99 440.52 161.34
  C 437.93 163.86 435.50 164.22 432.94 165.98"
/>
<path stroke="#595958" vector-effect="non-scaling-stroke" d="
  M 427.03 163.49
  Q 427.26 163.10 427.00 162.75
  Q 426.80 162.48 426.41 162.45
  Q 426.10 162.42 425.70 162.46"
/>
<path stroke="#bcbcb9" vector-effect="non-scaling-stroke" d="
  M 425.70 162.46
  Q 427.42 161.42 428.32 159.88
  Q 428.58 159.42 428.45 158.92
  L 427.11 153.76
  Q 426.97 153.18 426.43 152.92
  L 425.01 152.23"
/>
<path stroke="#80807b" vector-effect="non-scaling-stroke" d="
  M 425.01 152.23
  Q 425.43 151.18 424.54 151.00"
/>
<path stroke="#878782" vector-effect="non-scaling-stroke" d="
  M 420.98 142.59
  Q 420.65 141.79 422.02 140.70
  Q 422.50 140.31 421.97 140.00
  Q 421.47 139.71 420.28 139.88"
/>
<path stroke="#bcbcb9" vector-effect="non-scaling-stroke" d="
  M 420.28 139.88
  L 426.97 138.25
  Q 428.07 137.98 427.94 136.86
  C 426.89 127.06 422.31 120.23 415.04 113.78"
/>
<path stroke="#acaca9" vector-effect="non-scaling-stroke" d="
  M 420.28 139.88
  L 391.60 143.76
  A 0.38 0.38 0.0 0 0 391.29 144.24
  Q 392.19 147.40 394.12 150.05"
/>
<path stroke="#a5a5a2" vector-effect="non-scaling-stroke" d="
  M 422.69 152.92
  Q 423.89 153.05 425.01 152.23"
/>
<path stroke="#7e7f7e" vector-effect="non-scaling-stroke" d="
  M 425.70 162.46
  Q 424.33 162.89 423.64 163.79"
/>
<path stroke="#a5a5a2" vector-effect="non-scaling-stroke" d="
  M 422.49 164.23
  Q 419.87 163.98 417.27 165.22"
/>
<path stroke="#acaca9" vector-effect="non-scaling-stroke" d="
  M 417.27 165.22
  Q 411.47 166.30 409.02 166.59
  C 401.95 167.44 390.36 166.20 385.90 159.59
  Q 381.95 153.73 379.62 146.42"
/>
<path stroke="#c6c6c3" vector-effect="non-scaling-stroke" d="
  M 379.62 146.42
  Q 376.98 138.22 376.12 130.25
  Q 375.38 123.39 379.37 115.94"
/>
<path stroke="#70706b" vector-effect="non-scaling-stroke" d="
  M 417.27 165.22
  Q 418.13 165.54 418.94 165.28"
/>
<path stroke="#494a48" vector-effect="non-scaling-stroke" d="
  M 379.76 169.42
  L 376.02 167.06
  Q 375.56 166.77 375.38 167.27
  Q 375.26 167.62 375.55 168.16"
/>
<path stroke="#91918c" vector-effect="non-scaling-stroke" d="
  M 379.62 146.42
  Q 374.34 146.40 371.22 150.81"
/>
<path stroke="#c6c6c3" vector-effect="non-scaling-stroke" d="
  M 371.22 150.81
  L 365.71 133.34"
/>
<path stroke="#acaca9" vector-effect="non-scaling-stroke" d="
  M 371.22 150.81
  Q 374.30 159.55 375.55 168.16"
/>
<path stroke="#7e7f7e" vector-effect="non-scaling-stroke" d="
  M 375.55 168.16
  L 376.48 173.78"
/>
<path stroke="#a5a5a2" vector-effect="non-scaling-stroke" d="
  M 370.75 191.95
  Q 365.35 192.42 360.87 195.27"
/>
<path stroke="#a5a5a2" vector-effect="non-scaling-stroke" d="
  M 360.26 195.35
  L 357.28 196.32"
/>
<path stroke="#acaca9" vector-effect="non-scaling-stroke" d="
  M 357.28 196.32
  C 348.87 198.75 336.88 201.57 331.57 193.14
  C 330.46 191.38 325.18 180.79 331.27 181.53
  Q 338.30 182.38 340.91 184.32"
/>
<path stroke="#acaca9" vector-effect="non-scaling-stroke" d="
  M 353.92 186.87
  Q 359.03 185.94 361.71 183.16
  C 365.79 178.93 364.42 171.46 362.17 166.41
  Q 361.92 165.85 361.50 166.30
  Q 352.12 176.25 338.52 175.16
  C 325.51 174.11 317.78 159.13 316.15 147.76"
/>
<path stroke="#c6c6c3" vector-effect="non-scaling-stroke" d="
  M 316.15 147.76
  Q 314.83 140.49 316.60 133.31
  C 316.93 131.95 317.79 130.69 318.15 129.18
  Q 318.26 128.70 318.63 128.37
  Q 319.55 127.55 319.27 126.45"
/>
<path stroke="#91918c" vector-effect="non-scaling-stroke" d="
  M 316.15 147.76
  Q 316.28 148.58 315.55 147.70
  Q 315.18 147.26 315.14 147.83
  Q 314.96 149.98 314.61 152.10
  Q 314.43 153.23 313.20 155.68
  Q 312.12 157.83 311.69 161.14"
/>
<path stroke="#c6c6c3" vector-effect="non-scaling-stroke" d="
  M 311.69 161.14
  L 306.68 141.22"
/>
<path stroke="#424341" vector-effect="non-scaling-stroke" d="
  M 357.01 197.92
  Q 356.86 197.92 356.71 197.92"
/>
<path stroke="#494a48" vector-effect="non-scaling-stroke" d="
  M 353.40 179.32
  Q 353.34 178.62 352.69 178.13
  Q 352.26 177.80 351.92 178.22
  L 350.51 179.92"
/>
<path stroke="#70706b" vector-effect="non-scaling-stroke" d="
  M 357.28 196.32
  Q 357.23 196.99 356.71 197.92"
/>
<path stroke="#494a48" vector-effect="non-scaling-stroke" d="
  M 356.71 197.92
  Q 356.80 199.48 357.56 200.30
  Q 357.89 200.66 357.97 201.14
  Q 358.12 202.03 358.78 202.05"
/>
<path stroke="#acaca9" vector-effect="non-scaling-stroke" d="
  M 359.70 202.26
  C 357.50 202.52 355.17 202.50 353.12 202.77
  Q 342.44 204.19 331.74 205.39
  Q 331.61 205.41 331.27 205.38
  Q 330.95 205.35 330.68 205.48
  Q 330.26 205.67 330.72 205.65
  Q 331.72 205.59 332.74 206.01"
/>
<path stroke="#494a48" vector-effect="non-scaling-stroke" d="
  M 332.74 206.01
  L 329.42 206.04"
/>
<path stroke="#494a48" vector-effect="non-scaling-stroke" d="
  M 319.52 180.46
  Q 318.94 180.02 318.34 180.04
  Q 317.93 180.04 317.78 180.34
  Q 317.64 180.61 317.66 181.05"
/>
<path stroke="#acaca9" vector-effect="non-scaling-stroke" d="
  M 311.69 161.14
  L 317.66 181.05"
/>
<path stroke="#7e7f7e" vector-effect="non-scaling-stroke" d="
  M 317.66 181.05
  Q 317.69 181.69 317.94 181.80"
/>
<path stroke="#a5a5a2" vector-effect="non-scaling-stroke" d="
  M 318.00 182.30
  Q 318.33 184.34 316.00 184.70
  Q 311.21 185.43 306.67 185.57
  A 1.06 1.05 78.5 0 1 305.66 184.89
  L 303.43 179.16
  Q 302.68 177.25 302.16 179.24
  C 301.34 182.34 297.30 185.63 294.63 187.17
  Q 286.10 192.12 276.60 190.75"
/>
<path stroke="#acaca9" vector-effect="non-scaling-stroke" d="
  M 276.60 190.75
  Q 269.21 188.99 264.95 183.20"
/>
<path stroke="#c6c6c3" vector-effect="non-scaling-stroke" d="
  M 264.95 183.20
  C 262.48 178.12 260.27 168.64 263.09 163.39
  Q 263.73 162.20 264.30 160.81"
/>
<path stroke="#acaca9" vector-effect="non-scaling-stroke" d="
  M 282.28 151.83
  L 294.56 149.73
  A 0.92 0.91 -12.2 0 0 295.29 148.60
  Q 292.56 138.04 281.75 138.28
  C 273.83 138.46 268.73 142.28 262.95 144.56"
/>
<path stroke="#c6c6c3" vector-effect="non-scaling-stroke" d="
  M 262.95 144.56
  Q 263.63 144.58 262.81 144.42
  Q 262.71 144.41 262.69 144.30
  L 261.22 134.84"
/>
<path stroke="#bcbcb9" vector-effect="non-scaling-stroke" d="
  M 359.70 202.26
  Q 359.70 202.42 359.72 202.54
  Q 359.78 202.85 360.09 202.87
  L 367.52 203.27
  A 0.56 0.56 0.0 0 1 367.99 204.08
  Q 367.92 204.22 367.91 204.39
  Q 367.86 204.80 367.49 204.96
  Q 366.84 205.24 366.29 205.92"
/>
<path stroke="#a5a5a2" vector-effect="non-scaling-stroke" d="
  M 366.29 205.92
  L 363.11 208.06"
/>
<path stroke="#7e7f7e" vector-effect="non-scaling-stroke" d="
  M 363.11 208.06
  L 359.52 210.23"
/>
<path stroke="#a5a5a2" vector-effect="non-scaling-stroke" d="
  M 359.52 210.23
  L 338.65 221.93
  A 1.01 1.00 -19.4 0 1 337.16 221.22
  L 336.36 216.36
  A 0.35 0.34 -9.5 0 0 335.95 216.07
  C 314.91 219.94 295.82 224.15 272.93 228.13
  C 242.50 233.43 199.43 243.72 168.34 247.88
  C 161.63 248.77 154.64 250.32 147.73 251.35
  A 0.91 0.91 0.0 0 1 146.74 250.77
  C 145.57 247.59 144.63 244.16 149.05 243.05"
/>
<path stroke="#acaca9" vector-effect="non-scaling-stroke" d="
  M 317.78 210.92
  Q 320.07 211.51 321.57 210.27"
/>
<path stroke="#7e7f7e" vector-effect="non-scaling-stroke" d="
  M 328.75 208.78
  L 337.44 207.11
  Q 338.58 206.89 337.46 206.58
  Q 335.30 205.98 332.74 206.01"
/>
<path stroke="#80807b" vector-effect="non-scaling-stroke" d="
  M 366.98 206.02
  Q 366.71 205.78 366.29 205.92"
/>
<path stroke="#91918c" vector-effect="non-scaling-stroke" d="
  M 264.95 183.20
  C 262.98 181.37 260.88 183.46 259.54 184.90
  Q 258.84 185.64 256.34 185.83"
/>
<path stroke="#636462" vector-effect="non-scaling-stroke" d="
  M 256.34 185.83
  L 254.99 182.28"
/>
<path stroke="#878782" vector-effect="non-scaling-stroke" d="
  M 254.79 152.36
  Q 254.62 148.22 251.93 146.34"
/>
<path stroke="#878782" vector-effect="non-scaling-stroke" d="
  M 262.69 194.87
  L 268.98 190.93
  A 0.63 0.63 0.0 0 0 268.77 189.78
  Q 262.99 188.65 260.78 193.15"
/>
<path stroke="#91918c" vector-effect="non-scaling-stroke" d="
  M 262.95 144.56
  L 257.11 150.76
  A 1.06 1.06 0.0 0 1 255.38 150.48
  Q 253.95 147.38 253.63 144.00"
/>
<path stroke="#70706b" vector-effect="non-scaling-stroke" d="
  M 267.71 197.46
  L 272.87 197.48
  Q 273.33 197.48 273.64 197.14
  Q 276.61 193.93 276.60 190.75"
/>
<path stroke="#424341" vector-effect="non-scaling-stroke" d="
  M 364.23 208.00
  Q 363.67 207.77 363.11 208.06"
/>
<path stroke="#424341" vector-effect="non-scaling-stroke" d="
  M 328.23 224.56
  Q 328.45 222.93 327.82 221.54
  Q 327.60 221.05 327.06 221.07
  Q 325.90 221.11 324.69 221.62"
/>
<path stroke="#424341" vector-effect="non-scaling-stroke" d="
  M 360.46 210.34
  L 359.52 210.23"
/>
<path stroke="#494a48" vector-effect="non-scaling-stroke" d="
  M 256.34 185.83
  Q 257.80 190.36 260.78 193.15"
/>
<path stroke="#595958" vector-effect="non-scaling-stroke" d="
  M 260.78 193.15
  L 262.69 194.87"
/>
<path stroke="#494a48" vector-effect="non-scaling-stroke" d="
  M 262.69 194.87
  Q 262.95 195.36 264.26 196.22"
/>
<path stroke="#595958" vector-effect="non-scaling-stroke" d="
  M 249.56 158.48
  C 247.19 157.71 246.99 154.04 247.39 152.13"
/>
<path stroke="#7e7f7e" vector-effect="non-scaling-stroke" d="
  M 245.96 153.56
  C 247.75 156.26 247.67 159.38 248.17 162.51"
/>
<path stroke="#7e7f7e" vector-effect="non-scaling-stroke" d="
  M 255.61 192.95
  Q 256.29 194.95 255.24 195.60"
/>
<path stroke="#a5a5a2" vector-effect="non-scaling-stroke" d="
  M 255.24 195.60
  L 240.54 198.21"
/>
<path stroke="#acaca9" vector-effect="non-scaling-stroke" d="
  M 240.54 198.21
  Q 239.66 195.07 239.16 191.61
  C 237.77 181.85 235.56 172.14 233.48 162.50
  Q 232.79 159.25 230.85 155.39
  C 227.18 148.04 217.86 147.51 212.82 153.52
  Q 208.00 159.25 209.18 167.17"
/>
<path stroke="#a5a5a2" vector-effect="non-scaling-stroke" d="
  M 214.89 200.24
  Q 215.02 201.47 214.65 202.17
  Q 214.33 202.77 213.14 202.92
  Q 206.91 203.72 200.85 205.10
  A 0.44 0.44 0.0 0 1 200.32 204.75
  L 198.94 196.00
  Q 198.59 193.85 198.13 195.98
  C 197.62 198.38 197.08 202.04 194.91 203.66
  C 180.03 214.79 151.39 213.97 156.17 187.50"
/>
<path stroke="#a5a5a2" vector-effect="non-scaling-stroke" d="
  M 177.99 170.98
  C 180.90 171.21 181.99 169.53 184.49 169.28
  Q 187.97 168.93 191.20 168.51
  A 0.64 0.64 0.0 0 0 191.74 167.72
  C 187.17 148.98 168.18 156.08 157.08 162.02
  A 0.72 0.72 0.0 0 1 156.05 161.61
  L 154.02 155.50"
/>
<path stroke="#424341" vector-effect="non-scaling-stroke" d="
  M 254.96 196.20
  Q 254.71 195.82 255.24 195.60"
/>
<path stroke="#70706b" vector-effect="non-scaling-stroke" d="
  M 240.54 198.21
  L 234.55 204.89"
/>
<path stroke="#a5a5a2" vector-effect="non-scaling-stroke" d="
  M 150.31 215.60
  L 133.10 218.46
  Q 131.89 218.66 131.70 217.45
  L 130.79 211.65"
/>
<path stroke="#a5a5a2" vector-effect="non-scaling-stroke" d="
  M 128.97 200.08
  Q 129.21 196.11 128.11 192.30
  Q 128.04 192.06 127.80 192.14
  L 127.56 192.22
  A 0.01 0.01 0.0 0 0 127.55 192.23
  Q 128.27 193.79 128.12 195.46"
/>
<path stroke="#7e7f7e" vector-effect="non-scaling-stroke" d="
  M 124.52 166.02
  Q 123.08 155.83 123.46 146.04
  A 0.11 0.11 0.0 0 0 123.24 146.02
  L 121.68 157.71"
/>
<path stroke="#a5a5a2" vector-effect="non-scaling-stroke" d="
  M 113.27 221.70
  Q 108.72 223.37 103.55 223.74
  A 1.43 1.43 0.0 0 1 102.16 222.93
  L 96.23 210.65"
/>
<path stroke="#bcbcb9" vector-effect="non-scaling-stroke" d="
  M 94.38 206.33
  Q 93.74 203.04 91.10 198.72"
/>
<path stroke="#bcbcb9" vector-effect="non-scaling-stroke" d="
  M 91.06 199.49
  Q 91.23 197.69 90.53 196.70
  Q 90.30 196.37 90.17 196.74
  Q 90.10 196.92 90.12 197.28"
/>
<path stroke="#bcbcb9" vector-effect="non-scaling-stroke" d="
  M 89.98 196.80
  Q 90.38 194.71 88.94 194.69"
/>
<path stroke="#bcbcb9" vector-effect="non-scaling-stroke" d="
  M 83.97 184.55
  Q 84.26 183.45 83.51 182.40
  Q 83.29 182.10 83.15 182.45
  Q 83.08 182.62 83.12 182.98"
/>
<path stroke="#acaca9" vector-effect="non-scaling-stroke" d="
  M 83.00 182.75
  Q 83.17 180.66 81.84 180.39"
/>
<path stroke="#7e7f7e" vector-effect="non-scaling-stroke" d="
  M 76.12 167.56
  L 70.14 152.60
  A 0.07 0.07 0.0 0 0 70.01 152.65
  L 72.91 163.21"
/>
<path stroke="#acaca9" vector-effect="non-scaling-stroke" d="
  M 77.36 181.45
  L 84.56 220.74"
/>
<path stroke="#a5a5a2" vector-effect="non-scaling-stroke" d="
  M 84.56 220.74
  L 85.64 225.95
  A 1.17 1.17 0.0 0 1 84.67 227.35
  L 68.70 229.73"
/>
<path stroke="#70706b" vector-effect="non-scaling-stroke" d="
  M 84.85 218.23
  L 84.56 220.74"
/>
<path stroke="#7e7f7e" vector-effect="non-scaling-stroke" d="
  M 198.72 92.43
  C 202.99 97.18 211.59 95.74 216.14 92.34"
/>
<path stroke="#acaca9" vector-effect="non-scaling-stroke" d="
  M 219.87 86.03
  L 222.59 82.42
  A 0.71 0.71 0.0 0 0 222.71 81.89
  L 221.70 76.78
  Q 221.57 76.12 220.90 76.10
  C 215.09 75.92 209.69 74.74 203.58 76.45
  C 196.13 78.54 195.64 84.93 197.95 91.30"
/>
<path stroke="#494a48" vector-effect="non-scaling-stroke" d="
  M 210.00 86.74
  L 198.10 88.41"
/>
<path stroke="#7e7f7e" vector-effect="non-scaling-stroke" d="
  M 388.07 128.95
  L 387.95 133.85
  A 0.89 0.89 0.0 0 0 388.96 134.75
  L 397.24 133.57"
/>
<path stroke="#acaca9" vector-effect="non-scaling-stroke" d="
  M 397.24 133.57
  L 410.51 132.02
  Q 412.14 131.83 411.83 130.22
  Q 410.52 123.47 404.85 120.11
  C 397.37 115.67 388.37 120.00 388.07 128.95"
/>
<path stroke="#494a48" vector-effect="non-scaling-stroke" d="
  M 397.24 133.57
  Q 394.66 131.27 391.22 130.00"
/>
<path stroke="#494a48" vector-effect="non-scaling-stroke" d="
  M 388.88 128.72
  Q 388.30 128.52 388.07 128.95"
/>
<path stroke="#bcbcb9" vector-effect="non-scaling-stroke" d="
  M 347.54 164.75
  C 365.13 162.63 356.60 135.34 347.01 129.80
  C 340.69 126.14 331.85 127.59 329.22 135.40
  Q 327.43 140.71 328.19 144.75"
/>
<path stroke="#a5a5a2" vector-effect="non-scaling-stroke" d="
  M 275.94 168.37
  Q 274.22 170.83 275.73 173.40"
/>
<path stroke="#acaca9" vector-effect="non-scaling-stroke" d="
  M 275.75 173.41
  Q 275.75 176.47 278.06 177.33"
/>
<path stroke="#acaca9" vector-effect="non-scaling-stroke" d="
  M 284.71 180.16
  Q 295.63 178.97 298.81 168.14
  C 299.72 165.02 298.80 162.60 297.89 159.57
  Q 297.64 158.74 296.76 158.78
  C 291.51 159.05 276.58 160.90 275.94 168.37"
/>
<path stroke="#70706b" vector-effect="non-scaling-stroke" d="
  M 276.15 168.51
  Q 276.05 168.44 275.94 168.37"
/>
<path stroke="#acaca9" vector-effect="non-scaling-stroke" d="
  M 188.79 197.23
  C 193.38 195.18 193.82 189.66 195.16 185.34
  C 196.01 182.61 195.26 180.47 194.83 177.80
  A 0.57 0.57 0.0 0 0 194.19 177.33
  C 188.31 178.17 180.11 179.17 175.39 182.62
  Q 173.45 184.04 172.31 186.37"
/>
</g>
<path fill="#e1e1df" d="
  M 312.49 47.72
  L 313.80 53.37
  Q 314.39 55.95 315.60 53.59
  L 328.33 28.83
  A 0.31 0.31 0.0 0 0 328.02 28.38
  Q 327.88 28.39 327.72 28.44
  C 331.68 27.01 337.53 27.02 341.66 26.94
  A 0.62 0.62 0.0 0 1 342.19 27.89
  L 328.91 48.94
  A 1.09 1.08 37.0 0 0 329.11 50.32
  L 361.88 79.84
  Q 362.36 80.27 361.84 80.64
  Q 361.54 80.86 360.96 81.00
  L 347.44 82.63
  Q 346.95 82.69 346.55 82.41
  Q 344.66 81.11 342.28 78.96
  Q 332.06 69.78 322.00 60.52
  A 0.42 0.42 0.0 0 0 321.35 60.62
  L 317.57 67.08
  A 1.35 1.35 0.0 0 0 317.43 68.10
  L 320.87 81.48
  L 321.66 85.32
  L 321.85 86.98
  Q 316.29 88.43 309.72 88.45
  A 0.46 0.45 82.5 0 1 309.28 88.11
  L 307.58 81.53
  Q 305.37 73.50 301.60 55.56
  Q 298.49 40.78 290.94 16.19
  Q 290.78 15.68 291.01 15.20
  Q 291.37 14.44 291.38 13.63
  L 302.27 13.09
  A 1.41 1.40 81.1 0 1 303.70 14.14
  L 312.49 47.72
  Z"
/>
<path fill="#969692" d="
  M 291.38 13.63
  Q 291.37 14.44 291.01 15.20
  Q 290.78 15.68 290.94 16.19
  Q 298.49 40.78 301.60 55.56
  Q 305.37 73.50 307.58 81.53
  Q 306.60 81.01 306.50 81.13
  A 1.30 1.14 -34.6 0 0 306.22 82.24
  Q 307.48 86.95 305.63 90.02
  C 303.95 92.81 302.55 96.15 301.25 98.00
  Q 300.42 99.18 299.41 98.13
  Q 299.13 97.84 299.01 97.45
  Q 298.84 96.93 298.39 96.98
  L 296.45 91.73
  L 295.37 85.86
  Q 296.08 84.37 296.91 82.55
  Q 297.77 80.68 298.01 79.10
  Q 299.32 70.78 293.81 65.12
  L 289.50 48.53
  A 0.84 0.84 0.0 0 0 288.41 47.95
  L 287.93 48.13
  L 291.89 40.08
  A 1.10 1.10 0.0 0 0 291.22 38.54
  L 286.30 37.08
  Q 286.18 35.31 285.47 34.00
  Q 285.27 33.74 285.23 33.04
  L 283.64 29.16
  Q 282.99 28.28 283.58 27.04
  Q 286.88 20.10 291.38 13.63
  Z"
/>
<path fill="#aaaba6" d="
  M 327.72 28.44
  Q 327.88 28.39 328.02 28.38
  A 0.31 0.31 0.0 0 1 328.33 28.83
  L 315.60 53.59
  Q 314.39 55.95 313.80 53.37
  L 312.49 47.72
  Q 315.37 43.53 318.14 39.91
  C 321.10 36.04 323.45 31.01 327.72 28.44
  Z"
/>
<path fill="#1b1c1d" d="
  M 283.64 29.16
  L 285.23 33.04
  L 283.74 30.28
  Q 283.50 29.84 283.46 30.34
  Q 283.42 30.71 283.28 31.01
  Q 282.93 31.73 282.75 30.96
  Q 282.30 29.09 283.64 29.16
  Z"
/>
<path fill="#e1e1df" d="
  M 175.85 41.52
  L 151.90 44.42
  A 0.47 0.46 82.1 0 0 151.50 44.95
  L 153.61 58.34
  Q 154.82 67.02 156.12 74.08
  Q 159.83 94.24 164.07 114.54
  L 147.66 116.78
  L 137.85 62.80
  L 135.15 47.27
  A 0.55 0.54 81.6 0 0 134.55 46.82
  L 106.50 50.23
  L 106.23 41.02
  A 1.39 1.38 -4.6 0 1 107.44 39.61
  L 171.98 31.48
  A 1.44 1.43 79.0 0 1 173.55 32.55
  L 175.85 41.52
  Z"
/>
<path fill="#1b1c1d" d="
  M 285.47 34.00
  Q 286.18 35.31 286.30 37.08
  L 281.99 36.38
  Q 282.92 36.24 283.91 36.34
  Q 285.12 36.46 285.43 35.99
  Q 285.84 35.35 285.47 34.00
  Z"
/>
<path fill="#e1e1df" d="
  M 281.99 36.38
  L 286.30 37.08
  L 291.22 38.54
  A 1.10 1.10 0.0 0 1 291.89 40.08
  L 287.93 48.13
  Q 287.76 48.38 287.72 48.69
  L 287.05 49.12
  Q 286.59 49.41 286.11 49.14
  C 278.72 44.99 272.33 43.66 264.00 46.04
  C 256.71 48.14 256.05 56.77 264.03 57.93
  Q 270.02 58.80 275.98 59.84
  Q 277.54 60.11 278.45 59.16
  A 0.10 0.08 29.6 0 1 278.56 59.14
  L 281.72 60.56
  Q 287.53 60.95 293.81 65.12
  Q 299.32 70.78 298.01 79.10
  Q 297.77 80.68 296.91 82.55
  Q 296.08 84.37 295.37 85.86
  C 291.54 91.39 284.25 94.22 277.80 95.14
  C 268.34 96.48 258.78 95.75 250.11 91.42
  Q 249.31 91.30 248.90 90.63
  Q 248.61 90.17 248.72 89.32
  Q 248.89 87.93 249.00 86.55
  Q 249.62 82.75 251.73 79.62
  Q 252.82 79.79 254.12 80.84
  L 261.21 84.35
  Q 266.22 85.76 271.80 85.14
  C 276.62 85.35 281.47 84.20 283.89 79.73
  C 287.35 73.34 276.82 70.67 272.89 70.00
  C 262.37 68.21 239.41 65.17 245.54 48.14
  Q 247.99 42.24 252.97 39.76
  C 261.62 35.46 271.66 34.67 281.99 36.38
  Z"
/>
<path fill="#777772" d="
  M 175.85 41.52
  C 176.43 45.39 177.10 55.63 171.26 56.29
  Q 162.46 57.30 153.61 58.34
  L 151.50 44.95
  A 0.47 0.46 82.1 0 1 151.90 44.42
  L 175.85 41.52
  Z"
/>
<path fill="#e1e1df" d="
  M 240.09 96.22
  Q 240.05 97.49 240.83 99.66
  L 227.50 100.82
  A 0.43 0.43 0.0 0 1 227.04 100.46
  L 225.70 92.75
  Q 225.11 89.35 224.31 92.70
  Q 222.42 100.54 213.85 103.60
  Q 202.22 107.76 191.36 102.37
  Q 181.94 96.22 182.25 84.82
  C 182.32 82.45 183.57 80.67 184.24 78.34
  Q 186.24 74.77 190.07 71.80
  Q 198.91 66.50 210.04 66.69
  L 211.98 66.48
  L 218.13 66.73
  A 0.99 0.97 68.5 0 1 218.81 67.03
  L 219.38 67.60
  A 0.56 0.56 0.0 0 0 220.33 67.08
  L 219.75 64.53
  C 217.27 47.11 191.91 55.41 182.44 59.53
  A 1.05 1.05 0.0 0 1 181.00 58.82
  L 180.18 55.51
  L 179.91 50.43
  A 1.10 1.10 0.0 0 1 180.79 49.29
  C 198.66 45.51 228.45 34.60 233.41 63.02
  Q 236.33 79.73 240.09 96.22
  Z
  M 197.95 91.30
  L 198.72 92.43
  C 202.99 97.18 211.59 95.74 216.14 92.34
  Q 218.94 90.38 219.87 86.03
  L 222.59 82.42
  A 0.71 0.71 0.0 0 0 222.71 81.89
  L 221.70 76.78
  Q 221.57 76.12 220.90 76.10
  C 215.09 75.92 209.69 74.74 203.58 76.45
  C 196.13 78.54 195.64 84.93 197.95 91.30
  Z"
/>
<path fill="#777772" d="
  M 287.72 48.69
  C 286.06 51.75 284.46 54.38 282.26 57.08
  Q 280.52 59.22 281.72 60.56
  L 278.56 59.14
  A 0.10 0.08 29.6 0 0 278.45 59.16
  Q 277.54 60.11 275.98 59.84
  Q 270.02 58.80 264.03 57.93
  C 256.05 56.77 256.71 48.14 264.00 46.04
  C 272.33 43.66 278.72 44.99 286.11 49.14
  Q 286.59 49.41 287.05 49.12
  L 287.72 48.69
  Z"
/>
<path fill="#777772" d="
  M 137.85 62.80
  Q 137.17 63.92 135.90 64.61
  Q 135.47 64.85 135.46 65.34
  L 135.44 67.50
  L 134.41 62.21
  A 1.22 1.21 81.9 0 0 133.11 61.23
  Q 123.17 62.09 113.12 63.54
  Q 110.78 63.88 108.23 63.70
  A 1.60 1.60 0.0 0 1 106.74 62.14
  L 106.50 50.23
  L 134.55 46.82
  A 0.55 0.54 81.6 0 1 135.15 47.27
  L 137.85 62.80
  Z"
/>
<path fill="#e1e1df" d="
  M 82.21 56.61
  Q 80.97 59.77 75.75 60.79
  C 73.33 61.26 71.02 60.27 68.63 59.67
  Q 68.13 59.54 68.10 59.03
  L 67.99 56.94
  A 0.51 0.51 0.0 0 0 67.29 56.49
  L 60.48 59.07
  L 59.64 53.04
  A 1.33 1.31 -33.9 0 1 59.82 52.16
  C 62.78 47.35 66.15 47.64 71.28 49.39
  Q 75.30 50.76 79.50 51.38
  A 1.23 1.23 0.0 0 1 80.31 51.88
  Q 81.58 53.62 82.21 56.61
  Z"
/>
<path fill="#777772" d="
  M 245.54 48.14
  C 239.41 65.17 262.37 68.21 272.89 70.00
  C 276.82 70.67 287.35 73.34 283.89 79.73
  C 281.47 84.20 276.62 85.35 271.80 85.14
  Q 273.39 84.30 273.35 82.85
  A 0.58 0.58 0.0 0 0 272.81 82.28
  L 265.68 81.78
  L 254.18 79.80
  Q 253.59 79.70 253.84 80.24
  L 254.12 80.84
  Q 252.82 79.79 251.73 79.62
  Q 251.99 78.81 251.23 78.53
  C 236.11 72.93 238.54 59.09 245.54 48.14
  Z"
/>
<path fill="#777772" d="
  M 219.75 64.53
  L 219.66 66.02
  Q 219.64 66.39 219.27 66.43
  Q 216.67 66.67 215.90 65.35
  Q 214.62 63.18 214.36 62.15
  Q 213.25 57.85 212.42 62.21
  Q 212.21 63.32 211.98 66.48
  L 210.04 66.69
  Q 210.51 66.36 210.63 66.02
  A 0.50 0.50 0.0 0 0 210.20 65.35
  Q 201.33 64.66 193.07 67.90
  Q 189.64 69.24 186.22 70.66
  Q 184.16 71.64 182.13 71.63
  Q 181.62 71.63 181.36 71.18
  Q 179.16 67.41 179.07 63.20
  C 179.02 60.86 180.01 58.16 180.18 55.51
  L 181.00 58.82
  A 1.05 1.05 0.0 0 0 182.44 59.53
  C 191.91 55.41 217.27 47.11 219.75 64.53
  Z"
/>
<path fill="#696964" d="
  M 82.21 56.61
  Q 81.48 60.49 82.53 64.55
  L 72.04 67.67
  Q 71.92 67.79 71.20 67.83
  L 65.99 63.17
  Q 65.62 62.85 65.14 62.75
  L 61.54 62.06
  Q 60.74 60.96 60.48 59.07
  L 67.29 56.49
  A 0.51 0.51 0.0 0 1 67.99 56.94
  L 68.10 59.03
  Q 68.13 59.54 68.63 59.67
  C 71.02 60.27 73.33 61.26 75.75 60.79
  Q 80.97 59.77 82.21 56.61
  Z"
/>
<path fill="#e1e1df" d="
  M 62.93 68.86
  Q 61.60 72.67 55.47 74.65
  Q 54.58 74.94 54.20 76.45
  Q 54.05 77.10 53.68 76.54
  Q 52.54 74.81 51.69 74.31
  Q 44.68 70.15 38.24 65.79
  C 37.48 61.50 43.39 59.99 46.22 58.37
  A 3.38 3.36 46.5 0 1 49.73 58.47
  Q 55.35 62.09 61.37 66.12
  Q 62.70 67.01 62.93 68.86
  Z"
/>
<path fill="#aaaba6" d="
  M 219.75 64.53
  L 220.33 67.08
  A 0.56 0.56 0.0 0 1 219.38 67.60
  L 218.81 67.03
  A 0.99 0.97 68.5 0 0 218.13 66.73
  L 211.98 66.48
  Q 212.21 63.32 212.42 62.21
  Q 213.25 57.85 214.36 62.15
  Q 214.62 63.18 215.90 65.35
  Q 216.67 66.67 219.27 66.43
  Q 219.64 66.39 219.66 66.02
  L 219.75 64.53
  Z"
/>
<path fill="#777772" d="
  M 360.96 81.00
  L 355.62 90.32
  A 4.47 4.45 -77.3 0 1 352.12 92.54
  Q 346.39 93.01 341.01 93.64
  C 339.25 93.84 338.08 93.38 336.64 92.21
  Q 330.11 86.89 323.69 81.62
  L 321.81 80.13
  Q 321.37 79.77 321.13 80.30
  Q 320.88 80.87 320.87 81.48
  L 317.43 68.10
  A 1.35 1.35 0.0 0 1 317.57 67.08
  L 321.35 60.62
  A 0.42 0.42 0.0 0 1 322.00 60.52
  Q 332.06 69.78 342.28 78.96
  Q 344.66 81.11 346.55 82.41
  Q 346.95 82.69 347.44 82.63
  L 360.96 81.00
  Z"
/>
<path fill="#1b1c1d" d="
  M 61.54 62.06
  L 65.14 62.75
  Q 65.62 62.85 65.99 63.17
  L 71.20 67.83
  Q 68.72 67.93 66.34 67.17
  Q 65.87 67.02 65.65 66.57
  L 64.18 63.58
  A 1.19 1.15 0.4 0 0 63.61 63.02
  L 61.54 62.06
  Z"
/>
<path fill="#969692" d="
  M 137.85 62.80
  L 147.66 116.78
  Q 147.02 120.04 146.06 123.25
  Q 145.87 123.90 145.07 123.44
  L 135.44 67.50
  L 135.46 65.34
  Q 135.47 64.85 135.90 64.61
  Q 137.17 63.92 137.85 62.80
  Z"
/>
<path fill="#e1e1df" d="
  M 95.71 67.40
  Q 94.02 70.42 89.68 71.36
  Q 89.17 71.47 88.84 71.06
  L 86.69 68.45
  Q 85.08 64.29 91.79 63.22
  Q 92.31 63.14 92.64 63.55
  L 95.71 67.40
  Z"
/>
<path fill="#1b1c1d" d="
  M 82.53 64.55
  Q 79.23 68.30 72.04 67.67
  L 82.53 64.55
  Z"
/>
<path fill="#1b1c1d" d="
  M 210.04 66.69
  Q 198.91 66.50 190.07 71.80
  C 189.57 70.29 187.46 70.60 186.22 70.66
  Q 189.64 69.24 193.07 67.90
  Q 201.33 64.66 210.20 65.35
  A 0.50 0.50 0.0 0 1 210.63 66.02
  Q 210.51 66.36 210.04 66.69
  Z"
/>
<path fill="#777772" d="
  M 38.24 65.79
  Q 44.68 70.15 51.69 74.31
  Q 52.54 74.81 53.68 76.54
  Q 54.05 77.10 54.20 76.45
  Q 54.58 74.94 55.47 74.65
  Q 61.60 72.67 62.93 68.86
  L 62.89 76.58
  Q 62.89 77.15 62.36 77.37
  L 54.90 80.37
  Q 54.44 80.55 54.00 80.33
  L 40.42 73.54
  Q 39.90 73.28 39.68 72.74
  Q 38.24 69.16 38.24 65.79
  Z"
/>
<path fill="#696964" d="
  M 95.71 67.40
  L 95.92 71.69
  A 1.98 1.97 68.8 0 1 95.21 73.31
  L 91.47 76.43
  Q 89.98 77.68 91.64 78.69
  Q 92.71 79.34 93.42 80.37
  L 84.85 74.87
  L 87.99 75.42
  Q 88.87 75.58 88.26 74.93
  Q 87.40 74.02 87.74 72.89
  Q 87.88 72.44 87.74 71.99
  L 86.69 68.45
  L 88.84 71.06
  Q 89.17 71.47 89.68 71.36
  Q 94.02 70.42 95.71 67.40
  Z"
/>
<path fill="#e1e1df" d="
  M 84.85 74.87
  L 93.42 80.37
  L 96.87 82.57
  C 97.12 85.15 97.10 87.10 95.02 88.96
  Q 92.03 91.65 88.71 93.95
  C 86.93 95.18 87.71 98.42 87.94 100.22
  Q 88.02 100.78 87.65 101.20
  Q 85.87 103.25 83.27 104.00
  A 1.12 1.12 0.0 0 1 82.19 103.72
  L 78.20 99.78
  Q 77.74 99.32 77.74 98.66
  L 77.76 93.97
  A 0.90 0.89 -81.0 0 0 77.15 93.12
  Q 72.56 91.59 69.25 87.70
  L 68.75 81.91
  Q 68.70 81.38 69.15 81.11
  Q 74.82 77.63 80.48 74.22
  Q 82.20 73.18 84.85 74.87
  Z"
/>
<path fill="#777772" d="
  M 219.87 86.03
  Q 214.84 85.51 210.00 86.74
  L 198.10 88.41
  Q 197.71 89.60 197.95 91.30
  C 195.64 84.93 196.13 78.54 203.58 76.45
  C 209.69 74.74 215.09 75.92 220.90 76.10
  Q 221.57 76.12 221.70 76.78
  L 222.71 81.89
  A 0.71 0.71 0.0 0 1 222.59 82.42
  L 219.87 86.03
  Z"
/>
<path fill="#969692" d="
  M 184.24 78.34
  C 183.57 80.67 182.32 82.45 182.25 84.82
  Q 181.94 96.22 191.36 102.37
  Q 190.64 102.94 190.49 104.89
  Q 190.44 105.44 190.05 105.82
  Q 187.15 108.63 186.50 112.50
  C 175.10 104.22 177.60 88.86 184.24 78.34
  Z"
/>
<path fill="#1b1c1d" d="
  M 323.69 81.62
  Q 322.68 81.65 322.14 82.14
  Q 321.72 82.52 321.72 83.51
  Q 321.73 84.41 321.66 85.32
  L 320.87 81.48
  Q 320.88 80.87 321.13 80.30
  Q 321.37 79.77 321.81 80.13
  L 323.69 81.62
  Z"
/>
<path fill="#e1e1df" d="
  M 48.15 84.72
  C 48.00 89.23 43.87 88.92 40.66 89.67
  L 39.21 86.12
  L 39.78 82.13
  C 42.44 78.80 46.25 82.04 48.15 84.72
  Z"
/>
<path fill="#696964" d="
  M 307.58 81.53
  L 309.28 88.11
  A 0.46 0.45 82.5 0 0 309.72 88.45
  Q 316.29 88.43 321.85 86.98
  L 316.66 96.11
  A 2.70 2.69 8.5 0 1 314.90 97.41
  Q 308.30 98.88 301.10 98.85
  Q 300.66 98.84 300.14 99.17
  Q 299.71 99.44 299.38 99.06
  Q 298.59 98.16 298.39 96.98
  Q 298.84 96.93 299.01 97.45
  Q 299.13 97.84 299.41 98.13
  Q 300.42 99.18 301.25 98.00
  C 302.55 96.15 303.95 92.81 305.63 90.02
  Q 307.48 86.95 306.22 82.24
  A 1.30 1.14 -34.6 0 1 306.50 81.13
  Q 306.60 81.01 307.58 81.53
  Z"
/>
<path fill="#1b1c1d" d="
  M 265.68 81.78
  L 272.81 82.28
  A 0.58 0.58 0.0 0 1 273.35 82.85
  Q 273.39 84.30 271.80 85.14
  Q 266.22 85.76 261.21 84.35
  Q 264.09 84.71 266.54 83.61
  Q 266.99 83.40 267.48 83.36
  Q 268.30 83.30 269.08 83.11
  Q 269.92 82.91 269.08 82.69
  L 265.68 81.78
  Z"
/>
<path fill="#777772" d="
  M 39.78 82.13
  L 39.21 86.12
  Q 37.72 84.01 39.78 82.13
  Z"
/>
<path fill="#696964" d="
  M 96.87 82.57
  L 96.37 93.37
  Q 96.34 93.93 95.91 94.28
  L 88.83 100.01
  Q 88.40 100.36 88.26 100.90
  Q 88.02 101.84 87.17 102.40
  A 1.21 1.19 -20.3 0 0 86.64 103.53
  L 87.16 108.29
  A 0.61 0.61 0.0 0 1 86.26 108.89
  Q 83.30 107.30 80.07 106.39
  Q 77.42 105.65 76.17 104.38
  C 72.25 100.42 70.23 92.79 69.25 87.70
  Q 72.56 91.59 77.15 93.12
  A 0.90 0.89 -81.0 0 1 77.76 93.97
  L 77.74 98.66
  Q 77.74 99.32 78.20 99.78
  L 82.19 103.72
  A 1.12 1.12 0.0 0 0 83.27 104.00
  Q 85.87 103.25 87.65 101.20
  Q 88.02 100.78 87.94 100.22
  C 87.71 98.42 86.93 95.18 88.71 93.95
  Q 92.03 91.65 95.02 88.96
  C 97.10 87.10 97.12 85.15 96.87 82.57
  Z"
/>
<path fill="#696964" d="
  M 48.15 84.72
  Q 48.96 85.96 47.99 87.20
  Q 47.69 87.59 47.63 88.09
  C 47.35 90.51 48.69 93.21 44.98 93.64
  Q 43.73 93.78 43.64 92.60
  Q 43.60 92.12 43.83 91.70
  Q 44.11 91.17 44.01 90.58
  Q 43.89 89.96 43.26 89.90
  L 40.66 89.67
  C 43.87 88.92 48.00 89.23 48.15 84.72
  Z"
/>
<path fill="#696964" d="
  M 295.37 85.86
  L 296.45 91.73
  Q 295.55 89.53 293.13 90.36
  A 1.63 1.59 8.7 0 0 292.35 90.92
  C 286.77 98.51 282.81 103.71 274.51 105.62
  C 264.17 108.01 252.90 107.10 243.37 101.85
  Q 243.35 101.88 243.34 101.92
  C 246.42 100.30 248.76 94.56 250.11 91.42
  C 258.78 95.75 268.34 96.48 277.80 95.14
  C 284.25 94.22 291.54 91.39 295.37 85.86
  Z"
/>
<path fill="#aaaba6" d="
  M 249.00 86.55
  Q 248.89 87.93 248.72 89.32
  Q 248.61 90.17 248.90 90.63
  Q 249.31 91.30 250.11 91.42
  C 248.76 94.56 246.42 100.30 243.34 101.92
  C 241.42 99.96 242.82 97.40 242.95 95.31
  L 246.06 90.64
  Q 246.32 90.25 246.76 90.11
  Q 247.13 90.00 247.22 89.56
  Q 247.33 89.07 246.83 89.11
  Q 246.70 89.12 246.55 89.18
  Q 248.76 88.79 249.00 86.55
  Z"
/>
<path fill="#1b1c1d" d="
  M 210.00 86.74
  Q 208.25 87.09 207.35 88.15
  A 0.55 0.54 -52.6 0 0 207.45 88.96
  Q 211.19 91.53 216.14 92.34
  C 211.59 95.74 202.99 97.18 198.72 92.43
  Q 201.37 92.21 202.96 89.84
  A 0.95 0.94 16.6 0 0 202.16 88.37
  L 198.10 88.41
  L 210.00 86.74
  Z"
/>
<path fill="#696964" d="
  M 246.55 89.18
  Q 246.70 89.12 246.83 89.11
  Q 247.33 89.07 247.22 89.56
  Q 247.13 90.00 246.76 90.11
  Q 246.32 90.25 246.06 90.64
  L 242.95 95.31
  Q 244.17 92.07 246.55 89.18
  Z"
/>
<path fill="#696964" d="
  M 240.83 99.66
  Q 241.52 100.49 241.58 103.01
  Q 241.03 105.77 239.90 108.47
  Q 239.28 109.96 238.25 110.04
  Q 231.22 110.57 223.83 111.33
  A 0.59 0.59 0.0 0 1 223.19 110.71
  L 223.47 105.48
  A 0.66 0.66 0.0 0 0 222.40 104.93
  C 218.29 108.21 215.74 112.84 210.52 114.59
  Q 198.09 118.78 186.50 112.50
  Q 187.15 108.63 190.05 105.82
  Q 190.44 105.44 190.49 104.89
  Q 190.64 102.94 191.36 102.37
  Q 202.22 107.76 213.85 103.60
  Q 222.42 100.54 224.31 92.70
  Q 225.11 89.35 225.70 92.75
  L 227.04 100.46
  A 0.43 0.43 0.0 0 0 227.50 100.82
  L 240.83 99.66
  Z"
/>
<path fill="#e1e1df" d="
  M 41.95 97.45
  Q 38.21 103.03 32.47 100.09
  Q 31.75 97.48 32.17 95.28
  A 0.77 0.76 -8.1 0 1 32.58 94.74
  L 35.92 93.06
  Q 36.44 92.79 36.89 93.17
  Q 38.61 94.62 40.79 95.21
  Q 41.34 95.36 41.58 95.88
  Q 41.92 96.60 41.95 97.45
  Z"
/>
<path fill="#1b1c1d" d="
  M 242.95 95.31
  C 242.82 97.40 241.42 99.96 243.34 101.92
  Q 243.35 101.88 243.37 101.85
  L 242.58 101.75
  Q 242.03 101.68 241.79 102.18
  Q 241.63 102.51 241.58 103.01
  Q 241.52 100.49 240.83 99.66
  Q 240.05 97.49 240.09 96.22
  Q 240.61 97.13 241.35 97.68
  Q 241.82 98.04 242.05 97.49
  L 242.95 95.31
  Z"
/>
<path fill="#696964" d="
  M 64.24 96.23
  Q 60.39 96.01 56.47 97.24
  Q 59.84 94.29 64.24 96.23
  Z"
/>
<path fill="#e1e1df" d="
  M 64.24 96.23
  L 69.29 96.24
  Q 69.84 96.24 70.05 96.73
  L 71.70 100.55
  Q 70.06 105.60 63.25 104.23
  Q 62.65 104.11 62.30 103.71
  Q 61.78 103.12 61.76 102.67
  Q 61.61 99.92 60.26 102.32
  Q 59.19 104.23 60.29 107.37
  Q 60.42 107.72 60.78 107.80
  L 66.32 109.07
  A 0.78 0.77 6.3 0 1 66.92 109.81
  L 66.98 113.12
  Q 66.99 113.70 66.52 114.03
  C 64.03 115.78 58.89 119.76 55.78 117.98
  Q 51.95 115.78 47.86 115.83
  A 2.08 2.08 0.0 0 1 46.18 115.00
  Q 44.16 112.32 43.59 108.77
  Q 42.62 106.50 44.75 105.02
  Q 50.59 100.98 56.47 97.24
  Q 60.39 96.01 64.24 96.23
  Z"
/>
<path fill="#777772" d="
  M 41.95 97.45
  L 41.93 98.91
  Q 41.93 99.41 42.13 99.87
  C 44.79 105.93 36.39 108.02 34.05 101.97
  Q 33.86 101.50 33.51 101.15
  L 32.47 100.09
  Q 38.21 103.03 41.95 97.45
  Z"
/>
<path fill="#e1e1df" d="
  M 450.28 159.20
  Q 446.99 159.52 443.76 160.00
  Q 442.58 160.18 441.73 159.73
  C 436.71 139.50 428.94 123.81 426.74 105.09
  Q 432.06 103.65 438.01 104.52
  L 439.72 112.04
  A 0.69 0.69 0.0 0 0 440.97 112.27
  C 442.65 109.79 444.08 107.24 446.20 105.08
  Q 448.60 102.63 450.93 100.22
  L 454.99 100.02
  Q 455.60 99.99 455.75 100.58
  L 458.01 109.17
  Q 458.39 110.62 456.96 111.06
  C 451.94 112.63 442.31 117.48 444.36 124.55
  C 446.29 131.15 447.84 138.08 450.00 144.31
  Q 452.17 150.56 454.48 156.93
  Q 454.91 158.11 453.70 158.40
  L 450.28 159.20
  Z"
/>
<path fill="#696964" d="
  M 71.70 100.55
  L 72.22 107.63
  Q 72.28 108.49 71.45 108.68
  C 64.27 110.37 69.13 114.47 67.25 118.71
  C 66.05 121.43 62.43 122.48 59.95 123.61
  A 1.05 1.03 47.9 0 1 58.99 123.55
  Q 56.94 122.29 54.52 122.59
  A 1.36 1.31 56.2 0 1 53.69 122.41
  C 51.14 120.92 47.92 119.60 46.22 117.36
  Q 43.50 113.76 43.59 108.77
  Q 44.16 112.32 46.18 115.00
  A 2.08 2.08 0.0 0 0 47.86 115.83
  Q 51.95 115.78 55.78 117.98
  C 58.89 119.76 64.03 115.78 66.52 114.03
  Q 66.99 113.70 66.98 113.12
  L 66.92 109.81
  A 0.78 0.77 6.3 0 0 66.32 109.07
  L 60.78 107.80
  Q 60.42 107.72 60.29 107.37
  Q 59.19 104.23 60.26 102.32
  Q 61.61 99.92 61.76 102.67
  Q 61.78 103.12 62.30 103.71
  Q 62.65 104.11 63.25 104.23
  Q 70.06 105.60 71.70 100.55
  Z"
/>
<path fill="#aaaba6" d="
  M 450.93 100.22
  Q 448.60 102.63 446.20 105.08
  C 444.08 107.24 442.65 109.79 440.97 112.27
  A 0.69 0.69 0.0 0 1 439.72 112.04
  L 438.01 104.52
  Q 438.24 105.21 438.85 105.37
  Q 439.28 105.49 439.87 105.12
  Q 445.13 101.75 450.93 100.22
  Z"
/>
<path fill="#969692" d="
  M 426.74 105.09
  C 428.94 123.81 436.71 139.50 441.73 159.73
  Q 441.46 159.63 441.25 159.65
  Q 440.88 159.69 440.88 160.06
  L 440.88 160.48
  Q 440.88 160.99 440.52 161.34
  C 437.93 163.86 435.50 164.22 432.94 165.98
  Q 430.95 166.98 428.73 167.16
  A 0.67 0.66 -11.3 0 1 428.03 166.70
  L 427.03 163.49
  Q 427.26 163.10 427.00 162.75
  Q 426.80 162.48 426.41 162.45
  Q 426.10 162.42 425.70 162.46
  Q 427.42 161.42 428.32 159.88
  Q 428.58 159.42 428.45 158.92
  L 427.11 153.76
  Q 426.97 153.18 426.43 152.92
  L 425.01 152.23
  Q 425.43 151.18 424.54 151.00
  L 420.98 142.59
  Q 420.65 141.79 422.02 140.70
  Q 422.50 140.31 421.97 140.00
  Q 421.47 139.71 420.28 139.88
  L 426.97 138.25
  Q 428.07 137.98 427.94 136.86
  C 426.89 127.06 422.31 120.23 415.04 113.78
  Q 420.31 108.96 426.74 105.09
  Z"
/>
<path fill="#e1e1df" d="
  M 415.04 113.78
  C 422.31 120.23 426.89 127.06 427.94 136.86
  Q 428.07 137.98 426.97 138.25
  L 420.28 139.88
  L 391.60 143.76
  A 0.38 0.38 0.0 0 0 391.29 144.24
  Q 392.19 147.40 394.12 150.05
  C 400.04 159.54 414.49 156.15 422.69 152.92
  Q 423.89 153.05 425.01 152.23
  L 426.43 152.92
  Q 426.97 153.18 427.11 153.76
  L 428.45 158.92
  Q 428.58 159.42 428.32 159.88
  Q 427.42 161.42 425.70 162.46
  Q 424.33 162.89 423.64 163.79
  Q 423.20 164.12 422.49 164.23
  Q 419.87 163.98 417.27 165.22
  Q 411.47 166.30 409.02 166.59
  C 401.95 167.44 390.36 166.20 385.90 159.59
  Q 381.95 153.73 379.62 146.42
  Q 376.98 138.22 376.12 130.25
  Q 375.38 123.39 379.37 115.94
  Q 388.61 108.36 402.25 109.11
  C 407.52 109.40 410.56 111.51 415.04 113.78
  Z
  M 388.07 128.95
  L 387.95 133.85
  A 0.89 0.89 0.0 0 0 388.96 134.75
  L 397.24 133.57
  L 410.51 132.02
  Q 412.14 131.83 411.83 130.22
  Q 410.52 123.47 404.85 120.11
  C 397.37 115.67 388.37 120.00 388.07 128.95
  Z"
/>
<path fill="#696964" d="
  M 164.07 114.54
  Q 163.42 116.52 163.72 119.79
  C 164.11 124.12 161.11 124.06 157.49 124.52
  Q 152.43 125.17 146.85 125.76
  Q 145.39 125.91 145.20 124.45
  L 145.07 123.44
  Q 145.87 123.90 146.06 123.25
  Q 147.02 120.04 147.66 116.78
  L 164.07 114.54
  Z"
/>
<path fill="#aaaba6" d="
  M 379.37 115.94
  Q 375.38 123.39 376.12 130.25
  Q 376.98 138.22 379.62 146.42
  Q 374.34 146.40 371.22 150.81
  L 365.71 133.34
  C 369.01 125.73 372.64 122.58 379.37 115.94
  Z"
/>
<path fill="#e1e1df" d="
  M 365.71 133.34
  L 371.22 150.81
  Q 374.30 159.55 375.55 168.16
  L 376.48 173.78
  C 377.13 179.78 380.92 190.32 370.75 191.95
  Q 365.35 192.42 360.87 195.27
  L 360.26 195.35
  L 357.28 196.32
  C 348.87 198.75 336.88 201.57 331.57 193.14
  C 330.46 191.38 325.18 180.79 331.27 181.53
  Q 338.30 182.38 340.91 184.32
  C 343.39 189.57 349.85 187.88 353.92 186.87
  Q 359.03 185.94 361.71 183.16
  C 365.79 178.93 364.42 171.46 362.17 166.41
  Q 361.92 165.85 361.50 166.30
  Q 352.12 176.25 338.52 175.16
  C 325.51 174.11 317.78 159.13 316.15 147.76
  Q 314.83 140.49 316.60 133.31
  C 316.93 131.95 317.79 130.69 318.15 129.18
  Q 318.26 128.70 318.63 128.37
  Q 319.55 127.55 319.27 126.45
  Q 321.18 125.31 322.98 124.02
  Q 328.31 120.22 335.25 119.22
  Q 341.81 118.29 347.74 118.97
  A 1.48 1.44 -55.9 0 0 348.61 118.79
  C 351.47 117.11 355.50 117.62 358.63 117.22
  A 1.48 1.47 76.5 0 1 360.20 118.19
  L 365.71 133.34
  Z
  M 328.19 144.75
  C 329.75 152.76 331.94 159.14 339.27 163.46
  Q 342.61 165.42 347.54 164.75
  C 365.13 162.63 356.60 135.34 347.01 129.80
  C 340.69 126.14 331.85 127.59 329.22 135.40
  Q 327.43 140.71 328.19 144.75
  Z"
/>
<path fill="#777772" d="
  M 397.24 133.57
  Q 394.66 131.27 391.22 130.00
  Q 390.20 129.12 388.88 128.72
  Q 388.30 128.52 388.07 128.95
  C 388.37 120.00 397.37 115.67 404.85 120.11
  Q 410.52 123.47 411.83 130.22
  Q 412.14 131.83 410.51 132.02
  L 397.24 133.57
  Z"
/>
<path fill="#e1e1df" d="
  M 150.31 215.60
  L 133.10 218.46
  Q 131.89 218.66 131.70 217.45
  L 130.79 211.65
  L 128.97 200.08
  Q 129.21 196.11 128.11 192.30
  Q 128.04 192.06 127.80 192.14
  L 127.56 192.22
  A 0.01 0.01 0.0 0 0 127.55 192.23
  Q 128.27 193.79 128.12 195.46
  L 124.52 166.02
  Q 123.08 155.83 123.46 146.04
  A 0.11 0.11 0.0 0 0 123.24 146.02
  L 121.68 157.71
  L 113.27 221.70
  Q 108.72 223.37 103.55 223.74
  A 1.43 1.43 0.0 0 1 102.16 222.93
  L 96.23 210.65
  Q 94.85 208.58 94.38 206.33
  Q 93.74 203.04 91.10 198.72
  Q 91.08 199.11 91.06 199.49
  Q 91.23 197.69 90.53 196.70
  Q 90.30 196.37 90.17 196.74
  Q 90.10 196.92 90.12 197.28
  Q 90.08 196.96 89.98 196.80
  Q 90.38 194.71 88.94 194.69
  L 83.97 184.55
  Q 84.26 183.45 83.51 182.40
  Q 83.29 182.10 83.15 182.45
  Q 83.08 182.62 83.12 182.98
  Q 83.06 182.87 83.00 182.75
  Q 83.17 180.66 81.84 180.39
  L 76.12 167.56
  L 70.14 152.60
  A 0.07 0.07 0.0 0 0 70.01 152.65
  L 72.91 163.21
  L 77.36 181.45
  L 84.56 220.74
  L 85.64 225.95
  A 1.17 1.17 0.0 0 1 84.67 227.35
  L 68.70 229.73
  L 53.24 136.48
  Q 52.94 134.67 54.76 134.39
  L 74.73 131.31
  Q 75.75 131.16 76.17 132.10
  L 102.97 191.83
  Q 104.27 194.75 104.01 191.72
  Q 103.93 190.78 104.25 188.76
  C 107.31 168.91 110.72 149.11 113.38 129.20
  A 1.24 1.23 0.3 0 1 114.47 128.13
  L 133.32 125.95
  A 1.19 1.19 0.0 0 1 134.63 126.97
  Q 137.10 144.39 140.52 161.71
  Q 142.78 173.12 144.17 181.36
  Q 147.04 198.40 150.31 215.60
  Z"
/>
<path fill="#aaaba6" d="
  M 319.27 126.45
  Q 319.55 127.55 318.63 128.37
  Q 318.26 128.70 318.15 129.18
  C 317.79 130.69 316.93 131.95 316.60 133.31
  Q 314.83 140.49 316.15 147.76
  Q 316.28 148.58 315.55 147.70
  Q 315.18 147.26 315.14 147.83
  Q 314.96 149.98 314.61 152.10
  Q 314.43 153.23 313.20 155.68
  Q 312.12 157.83 311.69 161.14
  L 306.68 141.22
  Q 312.37 133.06 319.27 126.45
  Z"
/>
<path fill="#e1e1df" d="
  M 306.68 141.22
  L 311.69 161.14
  L 317.66 181.05
  Q 317.69 181.69 317.94 181.80
  Q 317.91 182.04 318.00 182.30
  Q 318.33 184.34 316.00 184.70
  Q 311.21 185.43 306.67 185.57
  A 1.06 1.05 78.5 0 1 305.66 184.89
  L 303.43 179.16
  Q 302.68 177.25 302.16 179.24
  C 301.34 182.34 297.30 185.63 294.63 187.17
  Q 286.10 192.12 276.60 190.75
  Q 269.21 188.99 264.95 183.20
  C 262.48 178.12 260.27 168.64 263.09 163.39
  Q 263.73 162.20 264.30 160.81
  C 269.03 155.07 275.33 153.68 282.28 151.83
  L 294.56 149.73
  A 0.92 0.91 -12.2 0 0 295.29 148.60
  Q 292.56 138.04 281.75 138.28
  C 273.83 138.46 268.73 142.28 262.95 144.56
  Q 263.63 144.58 262.81 144.42
  Q 262.71 144.41 262.69 144.30
  L 261.22 134.84
  Q 276.33 124.44 295.14 129.33
  C 300.27 130.67 303.46 135.38 306.68 141.22
  Z
  M 275.94 168.37
  Q 274.22 170.83 275.73 173.40
  Q 275.74 173.40 275.75 173.41
  Q 275.75 176.47 278.06 177.33
  Q 280.55 179.79 284.71 180.16
  Q 295.63 178.97 298.81 168.14
  C 299.72 165.02 298.80 162.60 297.89 159.57
  Q 297.64 158.74 296.76 158.78
  C 291.51 159.05 276.58 160.90 275.94 168.37
  Z"
/>
<path fill="#969692" d="
  M 347.54 164.75
  Q 349.11 164.40 348.94 162.48
  Q 348.16 153.46 343.55 144.05
  C 341.20 139.26 335.50 136.69 330.65 135.37
  A 1.07 1.06 16.9 0 0 329.36 136.05
  Q 327.91 140.23 328.19 144.75
  Q 327.43 140.71 329.22 135.40
  C 331.85 127.59 340.69 126.14 347.01 129.80
  C 356.60 135.34 365.13 162.63 347.54 164.75
  Z"
/>
<path fill="#1b1c1d" d="
  M 388.88 128.72
  Q 387.38 130.97 388.45 133.72
  Q 388.62 134.16 389.09 134.22
  C 391.45 134.50 392.15 131.44 391.22 130.00
  Q 394.66 131.27 397.24 133.57
  L 388.96 134.75
  A 0.89 0.89 0.0 0 1 387.95 133.85
  L 388.07 128.95
  Q 388.30 128.52 388.88 128.72
  Z"
/>
<path fill="#aaaba6" d="
  M 261.22 134.84
  L 262.69 144.30
  Q 262.71 144.41 262.81 144.42
  Q 263.63 144.58 262.95 144.56
  L 257.11 150.76
  A 1.06 1.06 0.0 0 1 255.38 150.48
  Q 253.95 147.38 253.63 144.00
  L 261.22 134.84
  Z"
/>
<path fill="#777772" d="
  M 282.28 151.83
  L 283.08 151.27
  Q 283.51 150.97 283.22 150.53
  C 282.78 149.85 282.26 149.33 281.42 149.13
  C 276.91 148.08 273.60 146.05 268.70 148.48
  Q 265.20 150.21 262.51 152.33
  A 2.66 2.64 36.3 0 1 259.92 152.72
  Q 257.16 151.66 254.79 152.36
  Q 254.62 148.22 251.93 146.34
  L 253.63 144.00
  Q 253.95 147.38 255.38 150.48
  A 1.06 1.06 0.0 0 0 257.11 150.76
  L 262.95 144.56
  C 268.73 142.28 273.83 138.46 281.75 138.28
  Q 292.56 138.04 295.29 148.60
  A 0.92 0.91 -12.2 0 1 294.56 149.73
  L 282.28 151.83
  Z"
/>
<path fill="#e1e1df" d="
  M 245.96 153.56
  C 247.75 156.26 247.67 159.38 248.17 162.51
  L 255.61 192.95
  Q 256.29 194.95 255.24 195.60
  L 240.54 198.21
  Q 239.66 195.07 239.16 191.61
  C 237.77 181.85 235.56 172.14 233.48 162.50
  Q 232.79 159.25 230.85 155.39
  C 227.18 148.04 217.86 147.51 212.82 153.52
  Q 208.00 159.25 209.18 167.17
  L 214.89 200.24
  Q 215.02 201.47 214.65 202.17
  Q 214.33 202.77 213.14 202.92
  Q 206.91 203.72 200.85 205.10
  A 0.44 0.44 0.0 0 1 200.32 204.75
  L 198.94 196.00
  Q 198.59 193.85 198.13 195.98
  C 197.62 198.38 197.08 202.04 194.91 203.66
  C 180.03 214.79 151.39 213.97 156.17 187.50
  Q 161.05 174.11 177.99 170.98
  C 180.90 171.21 181.99 169.53 184.49 169.28
  Q 187.97 168.93 191.20 168.51
  A 0.64 0.64 0.0 0 0 191.74 167.72
  C 187.17 148.98 168.18 156.08 157.08 162.02
  A 0.72 0.72 0.0 0 1 156.05 161.61
  L 154.02 155.50
  Q 153.93 152.10 158.73 150.27
  C 168.55 146.54 179.67 143.70 190.06 146.47
  C 194.13 147.56 197.61 149.51 199.54 153.14
  A 0.85 0.84 36.9 0 0 201.11 152.92
  C 202.02 148.74 204.43 145.53 208.27 143.35
  C 219.81 136.81 236.74 136.41 243.77 149.77
  Q 244.78 151.71 245.96 153.56
  Z
  M 172.31 186.37
  C 168.26 198.82 179.94 202.99 188.79 197.23
  C 193.38 195.18 193.82 189.66 195.16 185.34
  C 196.01 182.61 195.26 180.47 194.83 177.80
  A 0.57 0.57 0.0 0 0 194.19 177.33
  C 188.31 178.17 180.11 179.17 175.39 182.62
  Q 173.45 184.04 172.31 186.37
  Z"
/>
<path fill="#777772" d="
  M 420.28 139.88
  Q 421.47 139.71 421.97 140.00
  Q 422.50 140.31 422.02 140.70
  Q 420.65 141.79 420.98 142.59
  Q 418.36 144.18 415.92 145.79
  C 411.55 148.64 401.65 151.53 396.72 149.11
  Q 395.88 148.70 394.69 148.72
  Q 394.15 148.73 394.14 149.27
  L 394.12 150.05
  Q 392.19 147.40 391.29 144.24
  A 0.38 0.38 0.0 0 1 391.60 143.76
  L 420.28 139.88
  Z"
/>
<path fill="#1b1c1d" d="
  M 124.52 166.02
  Q 123.76 164.29 123.80 163.75
  Q 124.11 159.57 121.68 157.71
  L 123.24 146.02
  A 0.11 0.11 0.0 0 1 123.46 146.04
  Q 123.08 155.83 124.52 166.02
  Z"
/>
<path fill="#777772" d="
  M 379.62 146.42
  Q 381.95 153.73 385.90 159.59
  C 390.36 166.20 401.95 167.44 409.02 166.59
  Q 411.47 166.30 417.27 165.22
  Q 418.13 165.54 418.94 165.28
  C 415.30 166.79 411.33 169.43 406.47 171.18
  C 397.33 174.47 388.47 174.04 379.76 169.42
  L 376.02 167.06
  Q 375.56 166.77 375.38 167.27
  Q 375.26 167.62 375.55 168.16
  Q 374.30 159.55 371.22 150.81
  Q 374.34 146.40 379.62 146.42
  Z"
/>
<path fill="#969692" d="
  M 251.93 146.34
  Q 254.62 148.22 254.79 152.36
  L 249.56 158.48
  C 247.19 157.71 246.99 154.04 247.39 152.13
  Q 248.82 149.20 251.93 146.34
  Z"
/>
<path fill="#777772" d="
  M 316.15 147.76
  C 317.78 159.13 325.51 174.11 338.52 175.16
  Q 352.12 176.25 361.50 166.30
  Q 361.92 165.85 362.17 166.41
  C 364.42 171.46 365.79 178.93 361.71 183.16
  Q 359.03 185.94 353.92 186.87
  Q 357.59 186.76 353.40 179.32
  Q 353.34 178.62 352.69 178.13
  Q 352.26 177.80 351.92 178.22
  L 350.51 179.92
  Q 346.93 182.19 342.96 182.61
  Q 342.12 182.70 341.66 183.05
  Q 340.88 183.66 340.91 184.32
  Q 338.30 182.38 331.27 181.53
  C 325.18 180.79 330.46 191.38 331.57 193.14
  C 336.88 201.57 348.87 198.75 357.28 196.32
  Q 357.23 196.99 356.71 197.92
  Q 356.80 199.48 357.56 200.30
  Q 357.89 200.66 357.97 201.14
  Q 358.12 202.03 358.78 202.05
  Q 359.32 201.88 359.70 202.26
  C 357.50 202.52 355.17 202.50 353.12 202.77
  Q 342.44 204.19 331.74 205.39
  Q 331.61 205.41 331.27 205.38
  Q 330.95 205.35 330.68 205.48
  Q 330.26 205.67 330.72 205.65
  Q 331.72 205.59 332.74 206.01
  L 329.42 206.04
  L 318.49 204.24
  Q 316.76 203.96 318.24 203.03
  L 321.77 200.80
  A 0.67 0.66 64.6 0 0 322.05 200.01
  L 319.29 192.16
  Q 318.68 190.43 320.22 189.43
  Q 322.77 187.76 326.21 185.98
  Q 326.99 185.57 327.30 185.09
  A 0.87 0.87 0.0 0 0 326.93 183.81
  L 319.52 180.46
  Q 318.94 180.02 318.34 180.04
  Q 317.93 180.04 317.78 180.34
  Q 317.64 180.61 317.66 181.05
  L 311.69 161.14
  Q 312.12 157.83 313.20 155.68
  Q 314.43 153.23 314.61 152.10
  Q 314.96 149.98 315.14 147.83
  Q 315.18 147.26 315.55 147.70
  Q 316.28 148.58 316.15 147.76
  Z"
/>
<path fill="#777772" d="
  M 240.54 198.21
  L 234.55 204.89
  Q 233.88 204.98 233.47 204.65
  Q 233.16 204.41 233.06 203.75
  Q 229.83 183.31 226.79 167.50
  C 226.22 164.54 225.11 160.63 222.50 158.81
  C 218.45 155.98 216.59 157.11 212.12 157.53
  A 2.15 2.14 -81.6 0 0 210.33 158.87
  Q 208.81 162.71 209.18 167.17
  Q 208.00 159.25 212.82 153.52
  C 217.86 147.51 227.18 148.04 230.85 155.39
  Q 232.79 159.25 233.48 162.50
  C 235.56 172.14 237.77 181.85 239.16 191.61
  Q 239.66 195.07 240.54 198.21
  Z"
/>
<path fill="#696964" d="
  M 424.54 151.00
  Q 425.43 151.18 425.01 152.23
  Q 423.89 153.05 422.69 152.92
  Q 424.98 152.18 424.54 151.00
  Z"
/>
<path fill="#1b1c1d" d="
  M 76.12 167.56
  L 72.91 163.21
  L 70.01 152.65
  A 0.07 0.07 0.0 0 1 70.14 152.60
  L 76.12 167.56
  Z"
/>
<path fill="#1b1c1d" d="
  M 247.39 152.13
  C 246.99 154.04 247.19 157.71 249.56 158.48
  Q 247.75 158.01 248.17 162.51
  C 247.67 159.38 247.75 156.26 245.96 153.56
  Q 246.71 153.63 247.39 152.13
  Z"
/>
<path fill="#696964" d="
  M 177.99 170.98
  L 181.21 170.22
  A 0.67 0.67 0.0 0 0 181.72 169.47
  C 180.79 163.31 174.46 163.92 169.88 164.40
  C 165.15 164.89 159.92 167.50 155.30 169.24
  A 0.73 0.72 -16.1 0 1 154.33 168.71
  Q 153.10 162.67 154.02 155.50
  L 156.05 161.61
  A 0.72 0.72 0.0 0 0 157.08 162.02
  C 168.18 156.08 187.17 148.98 191.74 167.72
  A 0.64 0.64 0.0 0 1 191.20 168.51
  Q 187.97 168.93 184.49 169.28
  C 181.99 169.53 180.90 171.21 177.99 170.98
  Z"
/>
<path fill="#777772" d="
  M 284.71 180.16
  Q 288.62 179.54 290.82 177.28
  A 1.29 1.29 0.0 0 0 291.19 176.51
  Q 291.83 171.37 289.50 166.79
  A 2.04 2.02 77.2 0 0 287.74 165.67
  Q 281.66 165.49 276.15 168.51
  Q 276.05 168.44 275.94 168.37
  C 276.58 160.90 291.51 159.05 296.76 158.78
  Q 297.64 158.74 297.89 159.57
  C 298.80 162.60 299.72 165.02 298.81 168.14
  Q 295.63 178.97 284.71 180.16
  Z"
/>
<path fill="#696964" d="
  M 450.28 159.20
  C 448.42 161.28 446.67 164.13 443.73 164.55
  Q 438.36 165.32 432.94 165.98
  C 435.50 164.22 437.93 163.86 440.52 161.34
  Q 440.88 160.99 440.88 160.48
  L 440.88 160.06
  Q 440.88 159.69 441.25 159.65
  Q 441.46 159.63 441.73 159.73
  Q 442.58 160.18 443.76 160.00
  Q 446.99 159.52 450.28 159.20
  Z"
/>
<path fill="#aaaba6" d="
  M 264.30 160.81
  Q 263.73 162.20 263.09 163.39
  C 260.27 168.64 262.48 178.12 264.95 183.20
  C 262.98 181.37 260.88 183.46 259.54 184.90
  Q 258.84 185.64 256.34 185.83
  L 254.99 182.28
  C 253.34 172.80 258.45 167.99 264.30 160.81
  Z"
/>
<path fill="#1b1c1d" d="
  M 425.70 162.46
  Q 426.10 162.42 426.41 162.45
  Q 426.80 162.48 427.00 162.75
  Q 427.26 163.10 427.03 163.49
  Q 425.95 162.79 423.64 163.79
  Q 424.33 162.89 425.70 162.46
  Z"
/>
<path fill="#696964" d="
  M 422.49 164.23
  L 418.94 165.28
  Q 418.13 165.54 417.27 165.22
  Q 419.87 163.98 422.49 164.23
  Z"
/>
<path fill="#1b1c1d" d="
  M 379.76 169.42
  Q 377.74 168.85 376.79 169.61
  C 375.73 170.45 376.37 172.50 376.48 173.78
  L 375.55 168.16
  Q 375.26 167.62 375.38 167.27
  Q 375.56 166.77 376.02 167.06
  L 379.76 169.42
  Z"
/>
<path fill="#696964" d="
  M 275.94 168.37
  Q 276.05 168.44 276.15 168.51
  Q 275.50 170.54 275.73 173.40
  Q 274.22 170.83 275.94 168.37
  Z"
/>
<path fill="#777772" d="
  M 275.75 173.41
  L 278.06 177.33
  Q 275.75 176.47 275.75 173.41
  Z"
/>
<path fill="#696964" d="
  M 318.00 182.30
  Q 318.45 183.00 318.41 183.74
  Q 318.38 184.34 317.82 184.55
  L 316.21 185.17
  A 0.77 0.76 10.3 0 0 315.86 185.41
  L 311.95 190.03
  Q 311.63 190.40 311.16 190.52
  C 306.56 191.70 302.05 191.50 297.36 192.84
  A 0.85 0.84 76.4 0 1 296.30 192.19
  L 295.71 189.22
  A 0.52 0.52 0.0 0 0 294.89 188.91
  C 285.96 195.73 279.41 200.30 267.71 197.46
  L 272.87 197.48
  Q 273.33 197.48 273.64 197.14
  Q 276.61 193.93 276.60 190.75
  Q 286.10 192.12 294.63 187.17
  C 297.30 185.63 301.34 182.34 302.16 179.24
  Q 302.68 177.25 303.43 179.16
  L 305.66 184.89
  A 1.06 1.05 78.5 0 0 306.67 185.57
  Q 311.21 185.43 316.00 184.70
  Q 318.33 184.34 318.00 182.30
  Z"
/>
<path fill="#777772" d="
  M 188.79 197.23
  C 193.24 193.21 193.81 188.72 192.43 183.12
  A 1.23 1.22 81.0 0 0 191.16 182.19
  Q 180.45 182.95 172.31 186.37
  Q 173.45 184.04 175.39 182.62
  C 180.11 179.17 188.31 178.17 194.19 177.33
  A 0.57 0.57 0.0 0 1 194.83 177.80
  C 195.26 180.47 196.01 182.61 195.16 185.34
  C 193.82 189.66 193.38 195.18 188.79 197.23
  Z"
/>
<path fill="#1b1c1d" d="
  M 353.40 179.32
  Q 352.38 179.09 350.51 179.92
  L 351.92 178.22
  Q 352.26 177.80 352.69 178.13
  Q 353.34 178.62 353.40 179.32
  Z"
/>
<path fill="#1b1c1d" d="
  M 319.52 180.46
  Q 318.00 180.35 317.94 181.80
  Q 317.69 181.69 317.66 181.05
  Q 317.64 180.61 317.78 180.34
  Q 317.93 180.04 318.34 180.04
  Q 318.94 180.02 319.52 180.46
  Z"
/>
<path fill="#777772" d="
  M 83.00 182.75
  L 81.84 180.39
  Q 83.17 180.66 83.00 182.75
  Z"
/>
<path fill="#777772" d="
  M 77.36 181.45
  Q 78.80 185.08 79.54 188.74
  Q 82.51 203.45 84.85 218.23
  L 84.56 220.74
  L 77.36 181.45
  Z"
/>
<path fill="#969692" d="
  M 83.97 184.55
  Q 83.35 183.85 83.12 182.98
  Q 83.08 182.62 83.15 182.45
  Q 83.29 182.10 83.51 182.40
  Q 84.26 183.45 83.97 184.55
  Z"
/>
<path fill="#1b1c1d" d="
  M 254.99 182.28
  L 256.34 185.83
  Q 257.80 190.36 260.78 193.15
  L 262.69 194.87
  Q 262.95 195.36 264.26 196.22
  C 261.86 195.91 259.16 195.67 258.41 193.45
  Q 256.54 187.85 254.99 182.28
  Z"
/>
<path fill="#777772" d="
  M 264.95 183.20
  Q 269.21 188.99 276.60 190.75
  Q 276.61 193.93 273.64 197.14
  Q 273.33 197.48 272.87 197.48
  L 267.71 197.46
  L 264.26 196.22
  Q 262.95 195.36 262.69 194.87
  L 268.98 190.93
  A 0.63 0.63 0.0 0 0 268.77 189.78
  Q 262.99 188.65 260.78 193.15
  Q 257.80 190.36 256.34 185.83
  Q 258.84 185.64 259.54 184.90
  C 260.88 183.46 262.98 181.37 264.95 183.20
  Z"
/>
<path fill="#696964" d="
  M 156.17 187.50
  C 151.39 213.97 180.03 214.79 194.91 203.66
  C 197.08 202.04 197.62 198.38 198.13 195.98
  Q 198.59 193.85 198.94 196.00
  L 200.32 204.75
  A 0.44 0.44 0.0 0 0 200.85 205.10
  Q 206.91 203.72 213.14 202.92
  Q 214.33 202.77 214.65 202.17
  Q 215.02 201.47 214.89 200.24
  Q 215.14 202.90 214.08 205.89
  C 212.81 209.48 210.49 209.37 206.59 209.93
  Q 202.77 210.49 198.60 210.68
  A 1.10 1.09 -4.9 0 1 197.47 209.73
  L 196.87 205.50
  A 1.43 1.42 73.2 0 0 194.84 204.41
  C 192.58 205.50 191.34 206.67 189.98 209.08
  C 184.70 218.34 168.74 219.74 160.36 214.65
  Q 158.12 213.29 157.13 211.17
  Q 151.93 200.03 156.17 187.50
  Z"
/>
<path fill="#969692" d="
  M 262.69 194.87
  L 260.78 193.15
  Q 262.99 188.65 268.77 189.78
  A 0.63 0.63 0.0 0 1 268.98 190.93
  L 262.69 194.87
  Z"
/>
<path fill="#696964" d="
  M 128.97 200.08
  L 128.12 195.46
  Q 128.27 193.79 127.55 192.23
  A 0.01 0.01 0.0 0 1 127.56 192.22
  L 127.80 192.14
  Q 128.04 192.06 128.11 192.30
  Q 129.21 196.11 128.97 200.08
  Z"
/>
<path fill="#696964" d="
  M 370.75 191.95
  L 360.87 195.27
  Q 365.35 192.42 370.75 191.95
  Z"
/>
<path fill="#1b1c1d" d="
  M 255.61 192.95
  Q 256.48 193.87 256.52 195.07
  A 0.74 0.74 0.0 0 1 256.06 195.77
  L 254.96 196.20
  Q 254.71 195.82 255.24 195.60
  Q 256.29 194.95 255.61 192.95
  Z"
/>
<path fill="#969692" d="
  M 88.94 194.69
  Q 90.38 194.71 89.98 196.80
  L 88.94 194.69
  Z"
/>
<path fill="#696964" d="
  M 255.24 195.60
  Q 254.71 195.82 254.96 196.20
  C 253.07 198.17 252.52 201.36 249.75 202.23
  Q 245.07 203.71 234.55 204.89
  L 240.54 198.21
  L 255.24 195.60
  Z"
/>
<path fill="#696964" d="
  M 360.26 195.35
  Q 360.43 195.41 360.50 195.50
  Q 360.63 195.67 360.45 195.78
  L 357.01 197.92
  Q 356.86 197.92 356.71 197.92
  Q 357.23 196.99 357.28 196.32
  L 360.26 195.35
  Z"
/>
<path fill="#969692" d="
  M 91.06 199.49
  L 90.12 197.28
  Q 90.10 196.92 90.17 196.74
  Q 90.30 196.37 90.53 196.70
  Q 91.23 197.69 91.06 199.49
  Z"
/>
<path fill="#1b1c1d" d="
  M 356.71 197.92
  Q 356.86 197.92 357.01 197.92
  L 357.86 199.31
  Q 358.14 199.77 358.66 199.63
  L 362.28 198.61
  Q 363.55 198.25 362.47 199.01
  Q 360.74 200.24 358.79 201.08
  Q 358.28 201.30 358.59 201.76
  L 358.78 202.05
  Q 358.12 202.03 357.97 201.14
  Q 357.89 200.66 357.56 200.30
  Q 356.80 199.48 356.71 197.92
  Z"
/>
<path fill="#969692" d="
  M 94.38 206.33
  L 91.10 198.72
  Q 93.74 203.04 94.38 206.33
  Z"
/>
<path fill="#e1e1df" d="
  M 359.70 202.26
  Q 359.70 202.42 359.72 202.54
  Q 359.78 202.85 360.09 202.87
  L 367.52 203.27
  A 0.56 0.56 0.0 0 1 367.99 204.08
  Q 367.92 204.22 367.91 204.39
  Q 367.86 204.80 367.49 204.96
  Q 366.84 205.24 366.29 205.92
  L 363.11 208.06
  L 359.52 210.23
  L 338.65 221.93
  A 1.01 1.00 -19.4 0 1 337.16 221.22
  L 336.36 216.36
  A 0.35 0.34 -9.5 0 0 335.95 216.07
  C 314.91 219.94 295.82 224.15 272.93 228.13
  C 242.50 233.43 199.43 243.72 168.34 247.88
  C 161.63 248.77 154.64 250.32 147.73 251.35
  A 0.91 0.91 0.0 0 1 146.74 250.77
  C 145.57 247.59 144.63 244.16 149.05 243.05
  Q 190.35 235.00 231.75 227.30
  C 233.68 226.94 236.29 226.91 238.41 226.48
  Q 278.04 218.39 317.78 210.92
  Q 320.07 211.51 321.57 210.27
  L 328.75 208.78
  L 337.44 207.11
  Q 338.58 206.89 337.46 206.58
  Q 335.30 205.98 332.74 206.01
  Q 331.72 205.59 330.72 205.65
  Q 330.26 205.67 330.68 205.48
  Q 330.95 205.35 331.27 205.38
  Q 331.61 205.41 331.74 205.39
  Q 342.44 204.19 353.12 202.77
  C 355.17 202.50 357.50 202.52 359.70 202.26
  Z"
/>
<path fill="#969692" d="
  M 359.70 202.26
  L 368.99 202.86
  A 0.86 0.86 0.0 0 1 369.41 204.44
  L 366.98 206.02
  Q 366.71 205.78 366.29 205.92
  Q 366.84 205.24 367.49 204.96
  Q 367.86 204.80 367.91 204.39
  Q 367.92 204.22 367.99 204.08
  A 0.56 0.56 0.0 0 0 367.52 203.27
  L 360.09 202.87
  Q 359.78 202.85 359.72 202.54
  Q 359.70 202.42 359.70 202.26
  Z"
/>
<path fill="#1b1c1d" d="
  M 329.42 206.04
  L 332.74 206.01
  Q 335.30 205.98 337.46 206.58
  Q 338.58 206.89 337.44 207.11
  L 328.75 208.78
  Q 329.96 208.29 331.13 207.87
  Q 331.63 207.68 331.75 207.41
  Q 331.81 207.26 331.79 207.10
  Q 331.72 206.65 331.27 206.53
  L 329.42 206.04
  Z"
/>
<path fill="#696964" d="
  M 366.29 205.92
  Q 366.71 205.78 366.98 206.02
  L 364.23 208.00
  Q 363.67 207.77 363.11 208.06
  L 366.29 205.92
  Z"
/>
<path fill="#1b1c1d" d="
  M 363.11 208.06
  Q 363.67 207.77 364.23 208.00
  L 360.46 210.34
  L 359.52 210.23
  L 363.11 208.06
  Z"
/>
<path fill="#777772" d="
  M 321.57 210.27
  Q 320.07 211.51 317.78 210.92
  L 321.57 210.27
  Z"
/>
<path fill="#696964" d="
  M 359.52 210.23
  L 360.46 210.34
  C 355.06 214.25 349.11 217.39 343.35 220.72
  C 340.02 222.64 334.78 226.41 329.95 228.54
  Q 329.40 228.78 329.24 228.21
  L 328.23 224.56
  Q 328.45 222.93 327.82 221.54
  Q 327.60 221.05 327.06 221.07
  Q 325.90 221.11 324.69 221.62
  Q 297.08 226.70 269.55 232.28
  C 254.49 235.33 236.75 238.09 223.99 240.92
  Q 213.59 243.22 206.58 244.28
  C 203.52 244.75 200.12 245.79 197.67 246.15
  Q 188.79 247.45 180.00 249.26
  C 171.65 250.98 163.51 252.08 155.30 253.72
  Q 152.09 254.36 148.57 254.65
  A 1.78 1.77 82.7 0 1 146.68 253.18
  L 145.24 244.82
  A 0.81 0.80 -23.7 0 1 145.55 244.03
  Q 147.02 242.97 149.05 243.05
  C 144.63 244.16 145.57 247.59 146.74 250.77
  A 0.91 0.91 0.0 0 0 147.73 251.35
  C 154.64 250.32 161.63 248.77 168.34 247.88
  C 199.43 243.72 242.50 233.43 272.93 228.13
  C 295.82 224.15 314.91 219.94 335.95 216.07
  A 0.35 0.34 -9.5 0 1 336.36 216.36
  L 337.16 221.22
  A 1.01 1.00 -19.4 0 0 338.65 221.93
  L 359.52 210.23
  Z"
/>
<path fill="#696964" d="
  M 96.23 210.65
  L 102.16 222.93
  A 1.43 1.43 0.0 0 0 103.55 223.74
  Q 108.72 223.37 113.27 221.70
  Q 112.25 223.68 112.13 226.54
  Q 112.11 227.06 111.62 227.26
  Q 108.64 228.42 105.43 228.54
  A 1.67 1.67 0.0 0 1 103.85 227.56
  L 96.23 210.65
  Z"
/>
<path fill="#696964" d="
  M 130.79 211.65
  L 131.70 217.45
  Q 131.89 218.66 133.10 218.46
  L 150.31 215.60
  Q 149.01 216.44 148.64 219.39
  C 148.44 220.98 147.32 222.19 145.65 222.58
  Q 139.91 223.92 134.18 224.17
  A 1.99 1.99 0.0 0 1 132.22 222.83
  Q 130.36 217.39 130.79 211.65
  Z"
/>
<path fill="#696964" d="
  M 84.85 218.23
  L 87.76 232.05
  A 0.97 0.97 0.0 0 1 86.93 233.21
  C 84.08 233.54 81.55 233.70 78.39 234.30
  Q 75.30 234.88 72.15 234.75
  A 1.78 1.78 0.0 0 1 70.63 233.74
  L 68.70 229.73
  L 84.67 227.35
  A 1.17 1.17 0.0 0 0 85.64 225.95
  L 84.56 220.74
  L 84.85 218.23
  Z"
/>
<path fill="#1b1c1d" d="
  M 328.23 224.56
  L 327.51 222.42
  Q 327.33 221.89 326.77 221.83
  L 324.69 221.62
  Q 325.90 221.11 327.06 221.07
  Q 327.60 221.05 327.82 221.54
  Q 328.45 222.93 328.23 224.56
  Z"
/>
</svg>
