<?xml version="1.0" encoding="UTF-8" standalone="no"?>
<!DOCTYPE svg PUBLIC "-//W3C//DTD SVG 1.1//EN" "http://www.w3.org/Graphics/SVG/1.1/DTD/svg11.dtd">
<svg xmlns="http://www.w3.org/2000/svg" version="1.1" viewBox="0.00 0.00 360.00 512.00">
<g stroke-width="2.00" fill="none" stroke-linecap="butt">
<path stroke="#fad331" vector-effect="non-scaling-stroke" d="
  M 297.88 43.69
  L 269.92 80.59"
/>
<path stroke="#f1ae31" vector-effect="non-scaling-stroke" d="
  M 269.92 80.59
  C 215.93 32.40 132.74 36.51 84.88 91.37
  C 35.11 148.42 44.24 234.88 104.24 280.80
  Q 107.42 283.24 113.37 287.17"
/>
<path stroke="#fad331" vector-effect="non-scaling-stroke" d="
  M 113.37 287.17
  L 92.20 315.12"
/>
<path stroke="#ffa231" vector-effect="non-scaling-stroke" d="
  M 92.20 315.12
  Q 88.14 315.12 83.25 313.46
  Q 73.69 310.22 65.66 303.94"
/>
<path stroke="#e3840e" vector-effect="non-scaling-stroke" d="
  M 304.62 300.30
  Q 296.00 308.47 286.42 312.16
  C 276.21 316.08 267.98 315.31 256.10 314.63
  C 247.48 314.13 239.14 319.01 232.45 323.96
  Q 221.68 331.92 212.21 339.46"
/>
<path stroke="#fa9700" vector-effect="non-scaling-stroke" d="
  M 212.21 339.46
  Q 201.67 346.78 190.26 348.08
  C 178.31 349.43 164.61 347.29 155.50 340.29
  Q 146.25 333.17 136.94 326.12
  C 130.98 321.61 120.03 313.98 112.75 314.51
  Q 102.67 315.23 92.20 315.12"
/>
<path stroke="#eca300" vector-effect="non-scaling-stroke" d="
  M 113.37 287.17
  Q 116.09 288.78 118.88 290.34
  C 186.36 328.02 272.36 299.48 302.41 227.95
  C 324.14 176.25 310.90 118.36 269.92 80.59"
/>
<path stroke="#eca300" vector-effect="non-scaling-stroke" d="
  M 126.15 264.47
  C 152.67 280.50 182.66 285.51 212.55 276.60
  C 229.62 271.51 245.09 261.77 257.11 249.60
  C 276.18 230.29 287.25 202.42 286.59 175.38
  Q 285.60 134.70 257.30 104.69
  Q 255.40 102.67 253.71 101.34"
/>
<path stroke="#f1ae31" vector-effect="non-scaling-stroke" d="
  M 253.71 101.34
  Q 250.58 98.20 246.63 95.14
  C 222.25 76.36 191.26 68.98 160.79 75.42
  C 112.69 85.59 78.16 129.12 78.72 178.26
  C 79.12 213.70 96.76 244.54 126.15 264.47"
/>
<path stroke="#fad331" vector-effect="non-scaling-stroke" d="
  M 253.71 101.34
  L 211.59 155.31"
/>
<path stroke="#f1ae31" vector-effect="non-scaling-stroke" d="
  M 211.59 155.31
  L 202.73 154.57
  A 1.20 1.20 0.0 0 1 201.72 153.83
  Q 193.93 135.35 186.12 117.13
  C 185.73 116.22 185.06 115.02 184.04 114.56
  Q 181.05 113.21 179.83 116.07
  Q 171.64 135.20 163.38 154.23
  Q 163.26 154.51 162.97 154.53
  L 121.94 158.26
  A 3.30 3.30 0.0 0 0 120.07 164.04
  L 150.85 190.86
  A 0.93 0.93 0.0 0 1 151.15 191.78
  Q 146.58 211.48 142.06 231.50
  Q 141.36 234.58 143.94 235.58
  C 146.09 236.41 148.02 235.03 149.90 233.90"
/>
<path stroke="#fad331" vector-effect="non-scaling-stroke" d="
  M 149.90 233.90
  L 126.15 264.47"
/>
<path stroke="#eca300" vector-effect="non-scaling-stroke" d="
  M 149.90 233.90
  L 182.33 214.52
  Q 182.76 214.26 183.20 214.51
  Q 200.76 224.95 218.21 235.57
  Q 219.03 236.06 220.18 235.86
  Q 224.10 235.17 223.19 231.26
  Q 218.59 211.54 214.11 191.75
  Q 214.00 191.26 214.38 190.93
  Q 229.40 177.93 244.30 164.79
  C 247.48 161.99 247.13 158.50 242.53 158.11
  Q 227.27 156.85 211.59 155.31"
/>
<path stroke="#e8530e" vector-effect="non-scaling-stroke" d="
  M 185.63 406.21
  L 212.21 339.46"
/>
</g>
<path fill="#ffdd61" d="
  M 181.88 0.00
  L 184.74 0.00
  C 206.92 1.55 220.28 19.69 237.52 31.19
  C 255.17 42.96 279.17 33.45 297.88 43.69
  L 269.92 80.59
  C 215.93 32.40 132.74 36.51 84.88 91.37
  C 35.11 148.42 44.24 234.88 104.24 280.80
  Q 107.42 283.24 113.37 287.17
  L 92.20 315.12
  Q 88.14 315.12 83.25 313.46
  Q 73.69 310.22 65.66 303.94
  Q 59.74 298.38 58.33 296.68
  Q 48.40 284.73 45.24 269.51
  Q 44.20 264.44 44.00 248.72
  C 43.93 243.24 42.45 237.50 40.58 232.49
  C 39.14 228.61 36.99 226.95 34.14 224.26
  C 25.17 215.78 15.38 209.11 10.64 196.94
  C 3.36 178.24 10.99 160.26 21.42 144.92
  C 28.61 134.36 36.95 124.62 41.02 112.23
  C 43.03 106.11 43.61 99.74 44.18 91.83
  C 45.16 78.07 47.61 66.92 55.20 55.92
  C 60.62 48.06 66.64 43.39 75.52 40.83
  C 78.16 40.06 80.38 39.28 83.23 39.12
  C 86.62 38.92 89.99 38.19 93.27 38.17
  Q 108.38 38.08 118.49 35.92
  Q 125.77 34.36 133.59 28.11
  C 145.10 18.90 156.62 7.16 170.24 2.18
  Q 174.47 0.63 181.88 0.00
  Z"
/>
<path fill="#f5c800" d="
  M 297.88 43.69
  Q 305.49 47.88 310.19 54.54
  Q 321.71 70.88 322.01 91.88
  Q 322.31 112.36 333.71 129.24
  C 342.37 142.06 353.39 155.04 357.16 170.39
  Q 362.28 191.19 349.16 207.77
  C 343.71 214.65 335.26 220.71 328.63 227.54
  C 325.34 230.93 322.79 240.56 322.60 243.88
  C 321.99 254.71 322.53 265.77 319.32 276.53
  Q 315.64 288.89 304.62 300.30
  Q 296.00 308.47 286.42 312.16
  C 276.21 316.08 267.98 315.31 256.10 314.63
  C 247.48 314.13 239.14 319.01 232.45 323.96
  Q 221.68 331.92 212.21 339.46
  Q 201.67 346.78 190.26 348.08
  C 178.31 349.43 164.61 347.29 155.50 340.29
  Q 146.25 333.17 136.94 326.12
  C 130.98 321.61 120.03 313.98 112.75 314.51
  Q 102.67 315.23 92.20 315.12
  L 113.37 287.17
  Q 116.09 288.78 118.88 290.34
  C 186.36 328.02 272.36 299.48 302.41 227.95
  C 324.14 176.25 310.90 118.36 269.92 80.59
  L 297.88 43.69
  Z"
/>
<path fill="#e37e00" d="
  M 269.92 80.59
  C 310.90 118.36 324.14 176.25 302.41 227.95
  C 272.36 299.48 186.36 328.02 118.88 290.34
  Q 116.09 288.78 113.37 287.17
  Q 107.42 283.24 104.24 280.80
  C 44.24 234.88 35.11 148.42 84.88 91.37
  C 132.74 36.51 215.93 32.40 269.92 80.59
  Z
  M 126.15 264.47
  C 152.67 280.50 182.66 285.51 212.55 276.60
  C 229.62 271.51 245.09 261.77 257.11 249.60
  C 276.18 230.29 287.25 202.42 286.59 175.38
  Q 285.60 134.70 257.30 104.69
  Q 255.40 102.67 253.71 101.34
  Q 250.58 98.20 246.63 95.14
  C 222.25 76.36 191.26 68.98 160.79 75.42
  C 112.69 85.59 78.16 129.12 78.72 178.26
  C 79.12 213.70 96.76 244.54 126.15 264.47
  Z"
/>
<path fill="#ffdd61" d="
  M 253.71 101.34
  L 211.59 155.31
  L 202.73 154.57
  A 1.20 1.20 0.0 0 1 201.72 153.83
  Q 193.93 135.35 186.12 117.13
  C 185.73 116.22 185.06 115.02 184.04 114.56
  Q 181.05 113.21 179.83 116.07
  Q 171.64 135.20 163.38 154.23
  Q 163.26 154.51 162.97 154.53
  L 121.94 158.26
  A 3.30 3.30 0.0 0 0 120.07 164.04
  L 150.85 190.86
  A 0.93 0.93 0.0 0 1 151.15 191.78
  Q 146.58 211.48 142.06 231.50
  Q 141.36 234.58 143.94 235.58
  C 146.09 236.41 148.02 235.03 149.90 233.90
  L 126.15 264.47
  C 96.76 244.54 79.12 213.70 78.72 178.26
  C 78.16 129.12 112.69 85.59 160.79 75.42
  C 191.26 68.98 222.25 76.36 246.63 95.14
  Q 250.58 98.20 253.71 101.34
  Z"
/>
<path fill="#f5c800" d="
  M 253.71 101.34
  Q 255.40 102.67 257.30 104.69
  Q 285.60 134.70 286.59 175.38
  C 287.25 202.42 276.18 230.29 257.11 249.60
  C 245.09 261.77 229.62 271.51 212.55 276.60
  C 182.66 285.51 152.67 280.50 126.15 264.47
  L 149.90 233.90
  L 182.33 214.52
  Q 182.76 214.26 183.20 214.51
  Q 200.76 224.95 218.21 235.57
  Q 219.03 236.06 220.18 235.86
  Q 224.10 235.17 223.19 231.26
  Q 218.59 211.54 214.11 191.75
  Q 214.00 191.26 214.38 190.93
  Q 229.40 177.93 244.30 164.79
  C 247.48 161.99 247.13 158.50 242.53 158.11
  Q 227.27 156.85 211.59 155.31
  L 253.71 101.34
  Z"
/>
<path fill="#e37e00" d="
  M 211.59 155.31
  Q 227.27 156.85 242.53 158.11
  C 247.13 158.50 247.48 161.99 244.30 164.79
  Q 229.40 177.93 214.38 190.93
  Q 214.00 191.26 214.11 191.75
  Q 218.59 211.54 223.19 231.26
  Q 224.10 235.17 220.18 235.86
  Q 219.03 236.06 218.21 235.57
  Q 200.76 224.95 183.20 214.51
  Q 182.76 214.26 182.33 214.52
  L 149.90 233.90
  C 148.02 235.03 146.09 236.41 143.94 235.58
  Q 141.36 234.58 142.06 231.50
  Q 146.58 211.48 151.15 191.78
  A 0.93 0.93 0.0 0 0 150.85 190.86
  L 120.07 164.04
  A 3.30 3.30 0.0 0 1 121.94 158.26
  L 162.97 154.53
  Q 163.26 154.51 163.38 154.23
  Q 171.64 135.20 179.83 116.07
  Q 181.05 113.21 184.04 114.56
  C 185.06 115.02 185.73 116.22 186.12 117.13
  Q 193.93 135.35 201.72 153.83
  A 1.20 1.20 0.0 0 0 202.73 154.57
  L 211.59 155.31
  Z"
/>
<path fill="#d0401b" d="
  M 304.62 300.30
  L 360.00 429.61
  Q 359.99 429.69 360.00 429.76
  L 281.89 428.75
  A 1.96 1.93 -64.3 0 0 280.66 429.19
  L 216.62 481.35
  Q 216.38 481.54 216.27 481.26
  L 185.63 406.21
  L 212.21 339.46
  Q 221.68 331.92 232.45 323.96
  C 239.14 319.01 247.48 314.13 256.10 314.63
  C 267.98 315.31 276.21 316.08 286.42 312.16
  Q 296.00 308.47 304.62 300.30
  Z"
/>
<path fill="#ff6600" d="
  M 65.66 303.94
  Q 73.69 310.22 83.25 313.46
  Q 88.14 315.12 92.20 315.12
  Q 102.67 315.23 112.75 314.51
  C 120.03 313.98 130.98 321.61 136.94 326.12
  Q 146.25 333.17 155.50 340.29
  C 164.61 347.29 178.31 349.43 190.26 348.08
  Q 201.67 346.78 212.21 339.46
  L 185.63 406.21
  L 143.79 511.31
  Q 143.59 511.81 143.16 511.47
  L 79.13 459.56
  Q 78.71 459.22 78.18 459.22
  L 0.72 459.98
  Q 0.03 459.99 0.30 459.34
  L 65.66 303.94
  Z"
/>
</svg>
