<?xml version="1.0" encoding="UTF-8" standalone="no"?>
<!DOCTYPE svg PUBLIC "-//W3C//DTD SVG 1.1//EN" "http://www.w3.org/Graphics/SVG/1.1/DTD/svg11.dtd">
<svg xmlns="http://www.w3.org/2000/svg" version="1.1" viewBox="0.00 0.00 500.00 500.00">
<g stroke-width="2.00" fill="none" stroke-linecap="butt">
<path stroke="#c5b512" vector-effect="non-scaling-stroke" d="
  M 102.41 187.77
  L 87.88 196.67
  A 3.01 3.00 43.8 0 1 84.84 196.73
  L 78.92 193.43"
/>
<path stroke="#abab17" vector-effect="non-scaling-stroke" d="
  M 72.93 222.57
  L 65.99 218.63
  Q 65.66 218.45 65.68 218.08
  Q 65.69 217.93 65.73 217.77"
/>
<path stroke="#547032" vector-effect="non-scaling-stroke" d="
  M 105.46 240.24
  L 105.22 270.46"
/>
<path stroke="#945729" vector-effect="non-scaling-stroke" d="
  M 147.55 263.31
  L 118.49 278.82"
/>
<path stroke="#ea5b1f" vector-effect="non-scaling-stroke" d="
  M 148.12 284.28
  Q 137.99 288.97 128.44 294.53
  C 127.22 295.24 126.54 296.34 125.01 296.90
  Q 122.63 297.78 122.22 298.02
  Q 114.76 302.32 106.76 305.85"
/>
<path stroke="#119fbf" vector-effect="non-scaling-stroke" d="
  M 53.82 263.93
  C 54.31 268.48 40.24 273.53 34.60 275.55"
/>
<path stroke="#119fbf" vector-effect="non-scaling-stroke" d="
  M 89.21 304.34
  Q 84.12 302.16 73.54 296.74
  Q 71.52 295.71 70.08 296.70"
/>
</g>
<path fill="#a2bb21" d="
  M 102.41 187.77
  L 87.88 196.67
  A 3.01 3.00 43.8 0 1 84.84 196.73
  L 78.92 193.43
  Q 78.97 186.35 79.01 179.74
  C 79.03 176.95 83.71 177.23 85.43 178.13
  Q 94.08 182.66 102.41 187.77
  Z"
/>
<path fill="#e7af02" d="
  M 72.93 222.57
  L 65.99 218.63
  Q 65.66 218.45 65.68 218.08
  Q 65.69 217.93 65.73 217.77
  Q 65.31 200.16 65.48 193.50
  Q 65.58 189.57 68.74 189.07
  C 71.37 188.64 76.20 192.26 78.92 193.43
  L 84.84 196.73
  A 3.01 3.00 43.8 0 0 87.88 196.67
  L 102.41 187.77
  C 107.67 186.85 115.77 177.61 120.52 183.76
  C 122.23 185.97 121.73 192.08 121.70 195.01
  Q 121.68 196.17 120.69 196.78
  C 111.95 202.12 102.78 206.78 93.85 212.01
  C 86.37 216.40 78.82 219.21 72.93 222.57
  Z"
/>
<path fill="#a2bb21" d="
  M 140.44 213.82
  L 156.52 205.62
  A 3.74 3.73 -13.5 0 1 161.95 208.94
  L 161.98 228.66
  A 1.40 1.39 8.8 0 0 162.96 229.99
  Q 164.58 230.49 164.64 232.50
  Q 164.80 237.38 164.77 242.26
  C 164.76 245.58 161.68 248.21 158.53 246.39
  C 151.41 242.27 143.05 238.63 136.70 235.02
  Q 130.67 231.59 126.53 228.95
  C 121.80 225.93 122.07 222.26 122.03 216.35
  Q 121.98 207.71 122.01 199.20
  A 0.53 0.53 0.0 0 1 122.74 198.71
  Q 131.34 202.17 139.01 207.38
  A 1.66 1.65 -73.3 0 1 139.75 208.76
  L 139.74 213.39
  A 0.48 0.48 0.0 0 0 140.44 213.82
  Z"
/>
<path fill="#6ea62b" d="
  M 65.73 217.77
  Q 65.69 217.93 65.68 218.08
  Q 65.66 218.45 65.99 218.63
  L 72.93 222.57
  L 105.46 240.24
  L 105.22 270.46
  Q 98.29 265.77 91.44 262.10
  Q 77.65 254.73 77.58 254.69
  C 68.15 249.31 58.65 243.56 48.88 238.83
  C 43.99 236.46 37.66 233.95 35.38 228.56
  C 32.69 222.18 35.79 215.27 41.83 212.05
  C 49.66 207.86 56.95 213.54 64.45 218.05
  Q 64.83 218.28 65.11 218.24
  Q 65.52 218.18 65.73 217.77
  Z"
/>
<path fill="#393938" d="
  M 189.59 226.80
  L 189.45 261.53
  A 0.54 0.54 0.0 0 1 188.93 262.06
  L 185.57 262.15
  A 0.54 0.54 0.0 0 1 185.01 261.61
  L 185.04 226.70
  A 0.54 0.54 0.0 0 0 184.50 226.16
  L 175.17 226.18
  A 0.54 0.54 0.0 0 1 174.62 225.64
  L 174.65 222.62
  A 0.54 0.54 0.0 0 1 175.19 222.08
  L 198.98 222.07
  A 0.54 0.54 0.0 0 1 199.52 222.61
  L 199.51 225.71
  A 0.54 0.54 0.0 0 1 198.97 226.25
  L 190.13 226.26
  A 0.54 0.54 0.0 0 0 189.59 226.80
  Z"
/>
<path fill="#393938" d="
  M 257.47 246.44
  Q 257.47 248.24 258.51 246.77
  C 260.22 244.33 261.76 242.17 264.05 239.99
  Q 266.50 237.65 268.17 235.50
  Q 268.93 234.53 270.16 234.52
  L 273.50 234.48
  Q 274.79 234.46 273.87 235.37
  L 266.02 243.12
  A 0.85 0.84 52.0 0 0 265.90 244.17
  L 276.89 261.64
  Q 277.14 262.03 276.68 262.03
  L 273.26 262.05
  A 1.55 1.52 68.3 0 1 272.13 261.55
  C 268.67 257.75 265.87 252.34 263.14 248.05
  A 0.65 0.65 0.0 0 0 262.07 248.00
  L 257.56 253.83
  Q 257.26 254.22 257.26 254.70
  L 257.23 261.45
  Q 257.23 262.13 256.55 262.12
  L 253.79 262.09
  Q 253.00 262.08 253.00 261.29
  L 253.00 222.72
  Q 253.00 222.19 253.53 222.19
  L 256.86 222.22
  Q 257.50 222.22 257.50 222.86
  L 257.47 246.44
  Z"
/>
<path fill="#393938" d="
  M 285.86 231.98
  L 285.75 261.52
  Q 285.75 262.04 285.23 262.04
  L 282.00 262.04
  Q 281.45 262.04 281.45 261.50
  L 281.52 222.95
  A 0.53 0.52 -88.9 0 1 282.05 222.43
  L 285.64 222.49
  Q 286.05 222.50 286.23 222.86
  L 297.93 245.77
  A 0.47 0.47 0.0 0 0 298.78 245.76
  L 309.45 223.09
  Q 309.73 222.50 310.39 222.50
  L 314.48 222.52
  Q 315.09 222.52 315.09 223.13
  L 315.12 261.55
  A 0.42 0.42 0.0 0 1 314.70 261.97
  L 311.04 261.97
  A 0.44 0.43 -0.0 0 1 310.60 261.54
  L 310.49 232.73
  Q 310.49 231.51 309.90 232.58
  Q 307.04 237.77 304.03 243.31
  C 302.87 245.46 302.21 248.04 301.14 250.38
  Q 300.92 250.85 300.40 250.85
  L 296.39 250.84
  Q 295.82 250.84 295.56 250.33
  L 286.15 231.91
  A 0.15 0.15 0.0 0 0 285.86 231.98
  Z"
/>
<path fill="#393938" d="
  M 216.49 260.41
  Q 215.43 260.73 213.18 261.68
  C 208.98 263.44 201.67 262.28 199.52 257.55
  C 197.70 253.57 199.35 248.12 203.51 246.48
  C 206.45 245.32 211.37 246.16 214.98 245.87
  A 2.06 2.06 0.0 0 0 216.86 244.02
  C 217.69 235.80 209.17 236.95 204.45 239.42
  Q 203.78 239.77 203.26 239.22
  L 201.17 237.04
  Q 200.70 236.54 201.30 236.21
  C 206.73 233.29 217.21 231.60 220.03 238.43
  Q 220.80 240.28 220.79 244.20
  Q 220.77 252.91 220.84 261.63
  Q 220.85 262.23 220.24 262.20
  L 217.98 262.07
  A 1.00 0.99 81.8 0 1 217.08 261.39
  Q 216.98 261.11 217.01 260.83
  Q 217.06 260.23 216.49 260.41
  Z
  M 207.87 259.04
  Q 213.30 259.56 215.85 256.88
  C 217.50 255.15 217.06 252.20 216.99 249.91
  A 0.45 0.44 -0.7 0 0 216.54 249.48
  L 207.20 249.57
  Q 203.15 249.61 203.40 253.65
  L 203.45 254.47
  Q 203.70 258.65 207.87 259.04
  Z"
/>
<path fill="#393938" d="
  M 229.93 256.60
  C 233.05 260.00 242.46 260.32 243.81 254.52
  C 245.85 245.81 228.27 254.42 226.63 243.34
  Q 226.15 240.07 227.96 237.59
  C 231.88 232.19 240.32 233.16 245.61 235.88
  Q 246.37 236.27 245.78 236.89
  L 244.05 238.72
  Q 243.49 239.30 242.77 238.94
  C 239.64 237.37 235.74 236.64 232.80 238.28
  C 228.62 240.59 230.92 245.57 235.50 245.77
  C 238.25 245.89 242.80 245.48 245.04 247.15
  C 248.92 250.03 249.37 257.37 244.99 260.19
  C 239.52 263.70 231.67 262.36 226.25 259.61
  Q 225.80 259.38 225.78 258.88
  L 225.72 257.30
  A 0.67 0.67 0.0 0 1 226.31 256.61
  L 229.02 256.27
  Q 229.56 256.20 229.93 256.60
  Z"
/>
<path fill="#393938" d="
  M 338.02 260.12
  C 333.83 262.65 324.19 264.08 321.96 258.15
  Q 320.52 254.33 321.91 250.23
  C 324.13 243.62 332.02 246.52 337.00 245.74
  Q 338.48 245.51 338.67 244.25
  C 339.80 236.83 331.24 236.40 327.05 239.09
  Q 325.99 239.78 325.10 238.88
  L 323.49 237.26
  Q 322.55 236.32 323.74 235.74
  C 331.01 232.22 343.23 232.25 343.11 243.25
  Q 343.00 252.58 343.01 261.26
  Q 343.01 262.06 342.20 262.04
  L 339.49 261.97
  Q 338.78 261.95 338.75 261.24
  L 338.72 260.49
  Q 338.68 259.73 338.02 260.12
  Z
  M 325.69 256.54
  C 328.35 260.85 337.66 259.76 338.58 254.53
  Q 338.93 252.56 338.64 249.78
  Q 338.59 249.25 338.06 249.31
  Q 333.57 249.80 329.06 249.54
  C 325.06 249.31 324.09 253.95 325.69 256.54
  Z"
/>
<path fill="#393938" d="
  M 354.01 236.01
  A 0.44 0.44 0.0 0 0 354.77 236.38
  C 357.72 233.13 362.41 232.89 366.06 235.12
  C 370.96 238.11 370.42 242.20 370.43 248.29
  Q 370.44 254.96 370.39 261.38
  Q 370.39 262.00 369.77 262.00
  L 366.50 262.03
  Q 365.82 262.03 365.82 261.35
  Q 365.81 252.03 365.79 242.51
  C 365.78 235.49 354.03 236.24 354.01 243.50
  Q 353.99 252.57 354.04 261.23
  Q 354.04 261.99 353.28 261.98
  L 350.44 261.97
  Q 349.66 261.97 349.67 261.19
  L 349.67 234.79
  Q 349.67 234.24 350.22 234.22
  L 353.57 234.09
  A 0.63 0.62 -86.3 0 1 354.21 234.82
  L 354.01 236.01
  Z"
/>
<path fill="#393938" d="
  M 392.22 260.06
  C 387.71 262.97 377.13 263.76 375.76 256.53
  Q 374.29 248.78 380.53 246.38
  C 384.20 244.97 388.44 246.74 392.17 245.33
  Q 392.61 245.17 392.74 244.71
  C 395.25 235.93 385.12 237.01 379.98 239.37
  A 0.57 0.56 57.7 0 1 379.31 239.21
  L 377.13 236.60
  A 0.28 0.27 55.3 0 1 377.20 236.18
  C 382.65 233.13 392.77 231.81 396.19 238.19
  Q 397.19 240.06 397.25 243.60
  Q 397.39 252.57 397.30 261.17
  Q 397.29 261.99 396.47 261.96
  L 393.71 261.86
  A 0.85 0.85 0.0 0 1 392.90 260.96
  L 392.93 260.47
  Q 392.97 259.57 392.22 260.06
  Z
  M 383.26 258.36
  Q 388.95 260.10 392.62 255.81
  A 1.69 1.68 -24.6 0 0 393.02 254.75
  L 393.08 249.77
  Q 393.08 249.26 392.57 249.29
  Q 388.94 249.53 385.30 249.54
  C 382.19 249.54 380.00 250.04 379.86 253.50
  Q 379.70 257.28 383.26 258.36
  Z"
/>
<path fill="#393938" d="
  M 418.68 260.30
  C 410.45 265.11 403.64 260.70 403.30 251.75
  C 403.04 245.01 402.34 234.80 411.48 233.61
  Q 415.86 233.04 418.75 236.08
  Q 419.50 236.87 419.39 235.79
  Q 419.33 235.21 419.53 234.62
  Q 419.72 234.08 420.30 234.07
  L 423.02 234.02
  A 0.69 0.69 0.0 0 1 423.72 234.71
  Q 423.75 248.34 423.72 262.24
  C 423.70 268.88 421.48 273.65 414.25 274.38
  Q 408.01 275.02 404.13 271.28
  Q 402.96 270.15 404.23 269.15
  L 404.92 268.60
  Q 406.11 267.66 407.20 268.70
  C 410.27 271.60 416.00 271.41 418.14 267.88
  Q 419.86 265.06 419.18 260.54
  Q 419.11 260.05 418.68 260.30
  Z
  M 419.2433 243.2292
  A 5.64 5.64 0.0 0 0 413.5837 237.6089
  L 412.9037 237.6113
  A 5.64 5.64 0.0 0 0 407.2834 243.2709
  L 407.3167 252.7908
  A 5.64 5.64 0.0 0 0 412.9763 258.4111
  L 413.6563 258.4087
  A 5.64 5.64 0.0 0 0 419.2766 252.7491
  L 419.2433 243.2292
  Z"
/>
<path fill="#393938" d="
  M 435.55 235.78
  Q 441.23 231.99 447.41 235.12
  Q 447.64 235.23 447.50 235.45
  L 445.11 239.16
  Q 444.93 239.44 444.67 239.23
  C 441.83 236.84 439.30 237.25 436.60 239.25
  C 434.75 240.61 434.82 241.87 434.81 244.00
  Q 434.80 252.97 434.77 261.51
  A 0.49 0.49 0.0 0 1 434.27 262.00
  L 430.96 261.94
  Q 430.49 261.94 430.49 261.46
  L 430.47 235.03
  Q 430.47 234.04 431.47 234.04
  L 434.16 234.04
  A 0.86 0.86 0.0 0 1 435.02 234.91
  L 435.01 235.48
  Q 435.00 236.15 435.55 235.78
  Z"
/>
<path fill="#393938" d="
  M 455.48 249.70
  Q 451.63 249.68 453.35 253.13
  L 454.03 254.51
  Q 455.85 258.15 459.88 258.75
  Q 463.78 259.32 466.87 256.99
  Q 467.80 256.29 468.57 257.17
  L 469.19 257.87
  Q 470.29 259.12 468.85 259.95
  C 462.44 263.64 452.23 263.26 449.45 255.00
  C 447.58 249.46 447.54 242.36 451.43 237.75
  C 454.59 234.00 459.55 232.65 464.13 234.30
  C 470.18 236.48 471.83 243.51 470.94 249.33
  Q 470.88 249.74 470.46 249.74
  L 455.48 249.70
  Z
  M 453.52 245.99
  L 466.64 245.85
  A 0.57 0.57 0.0 0 0 467.21 245.28
  L 467.20 244.66
  A 7.23 6.95 89.4 0 0 460.18 237.50
  L 459.82 237.50
  A 7.23 6.95 89.4 0 0 452.94 244.80
  L 452.95 245.42
  A 0.57 0.57 0.0 0 0 453.52 245.99
  Z"
/>
<path fill="#393938" d="
  M 105.46 240.24
  C 109.98 242.37 114.85 245.45 118.08 247.26
  Q 126.30 251.88 134.48 256.58
  Q 140.86 260.24 147.55 263.31
  L 118.49 278.82
  Q 109.28 274.59 105.22 270.46
  L 105.46 240.24
  Z"
/>
<path fill="#04a6db" d="
  M 53.82 263.93
  C 54.31 268.48 40.24 273.53 34.60 275.55
  Q 32.54 266.80 33.95 260.74
  C 35.02 256.17 39.26 256.63 42.77 258.25
  Q 48.47 260.86 53.82 263.93
  Z"
/>
<path fill="#ee7419" d="
  M 147.55 263.31
  Q 154.75 267.10 161.66 271.17
  C 164.67 272.94 165.73 275.95 162.03 277.85
  Q 155.06 281.41 148.12 284.28
  Q 137.99 288.97 128.44 294.53
  C 127.22 295.24 126.54 296.34 125.01 296.90
  Q 122.63 297.78 122.22 298.02
  Q 114.76 302.32 106.76 305.85
  Q 106.68 293.72 106.74 290.00
  C 106.82 285.80 108.81 283.49 112.73 281.69
  Q 115.46 280.43 118.49 278.82
  L 147.55 263.31
  Z"
/>
<path fill="#1e97a3" d="
  M 53.82 263.93
  Q 70.12 273.33 86.50 282.49
  C 88.43 283.57 89.02 286.39 89.09 288.72
  Q 89.30 296.23 89.21 304.34
  Q 84.12 302.16 73.54 296.74
  Q 71.52 295.71 70.08 296.70
  Q 70.14 296.19 69.97 295.70
  Q 69.80 295.20 69.34 295.46
  C 64.21 298.33 58.76 302.16 53.09 303.59
  A 2.87 2.87 0.0 0 1 49.52 300.78
  L 49.62 283.79
  A 1.10 1.10 0.0 0 0 49.01 282.79
  L 34.60 275.55
  C 40.24 273.53 54.31 268.48 53.82 263.93
  Z"
/>
<path fill="#e64225" d="
  M 148.12 284.28
  L 148.24 301.83
  A 3.31 3.30 -76.7 0 1 143.44 304.80
  L 127.54 296.71
  A 0.87 0.86 13.8 0 0 126.28 297.47
  L 126.19 308.96
  A 1.53 1.51 76.6 0 1 125.38 310.29
  Q 119.86 313.19 114.14 316.43
  Q 111.88 317.71 110.17 317.26
  C 105.44 316.00 106.75 309.47 106.76 305.85
  Q 114.76 302.32 122.22 298.02
  Q 122.63 297.78 125.01 296.90
  C 126.54 296.34 127.22 295.24 128.44 294.53
  Q 137.99 288.97 148.12 284.28
  Z"
/>
<path fill="#04a6db" d="
  M 89.21 304.34
  Q 89.34 308.05 89.23 312.49
  C 88.99 322.73 73.76 311.63 70.63 309.59
  A 1.27 1.25 -73.5 0 1 70.07 308.54
  L 70.08 296.70
  Q 71.52 295.71 73.54 296.74
  Q 84.12 302.16 89.21 304.34
  Z"
/>
</svg>
